<?xml version="1.0" standalone="no"?>
<!DOCTYPE svg PUBLIC "-//W3C//DTD SVG 20010904//EN"
 "http://www.w3.org/TR/2001/REC-SVG-20010904/DTD/svg10.dtd">
<svg version="1.0" xmlns="http://www.w3.org/2000/svg"
 width="628.000000pt" height="628.000000pt" viewBox="0 0 628.000000 628.000000"
 preserveAspectRatio="xMidYMid meet">
<metadata>
Created by potrace 1.11, written by Peter Selinger 2001-2013
</metadata>
<g transform="translate(0.000000,628.000000) scale(0.100000,-0.100000)"
fill="#000000" stroke="none">
<path d="M2939 6275 c-2 -2 -31 -6 -64 -9 -117 -10 -297 -44 -415 -76 -107
-29 -294 -94 -298 -102 -2 -5 -10 -8 -19 -8 -22 0 -235 -106 -326 -162 -43
-26 -81 -48 -83 -48 -3 0 -10 -5 -17 -10 -7 -6 -48 -36 -92 -67 -72 -51 -145
-110 -244 -198 -70 -63 -210 -212 -266 -285 -22 -29 -45 -57 -50 -64 -13 -15
-34 -45 -98 -141 -167 -253 -286 -529 -357 -830 -27 -113 -26 -109 -35 -175
-4 -30 -9 -64 -12 -75 -18 -89 -25 -477 -10 -605 12 -112 17 -144 22 -166 2
-12 7 -39 10 -60 4 -21 8 -47 11 -56 3 -9 6 -25 8 -35 2 -10 11 -45 20 -78 9
-33 19 -69 21 -80 5 -25 62 -191 75 -222 6 -13 14 -33 19 -45 28 -69 115 -244
156 -313 52 -88 197 -297 229 -331 12 -12 37 -41 56 -65 19 -24 468 -476 997
-1006 l962 -963 253 254 c139 139 369 369 511 511 l257 259 -922 924 c-1096
1097 -973 971 -1036 1058 -68 94 -126 208 -161 319 -44 135 -54 206 -55 360 0
100 4 143 19 215 3 14 7 34 9 46 9 44 30 109 38 118 4 6 8 17 8 25 1 38 117
243 180 316 41 47 143 148 179 175 18 14 38 30 45 36 25 24 176 106 246 134
129 53 299 86 425 84 89 -2 215 -15 242 -25 14 -5 28 -7 31 -5 2 3 17 -1 33
-10 16 -8 32 -14 36 -14 40 1 241 -92 308 -142 114 -85 199 -166 269 -258 45
-59 116 -175 116 -191 0 -5 3 -9 8 -9 8 0 15 -18 60 -157 92 -280 69 -582 -64
-859 l-36 -76 508 -513 c280 -281 514 -513 520 -513 14 -2 103 115 169 223 27
44 53 82 57 83 5 2 8 12 8 22 0 10 4 20 9 22 16 6 163 327 187 408 2 8 20 69
40 135 19 66 38 131 40 145 3 14 11 59 19 100 32 170 39 251 40 465 0 188 -6
284 -24 400 -5 33 -12 78 -16 100 -3 22 -8 47 -11 55 -3 8 -8 26 -11 40 -54
286 -223 659 -426 940 -158 218 -363 425 -572 576 -108 78 -193 134 -204 134
-6 0 -11 4 -11 9 0 5 -12 14 -27 20 -16 6 -64 30 -108 54 -219 118 -525 217
-800 258 -38 5 -83 12 -100 15 -34 6 -481 15 -486 9z"/>
</g>
</svg>
