<svg  xmlns="http://www.w3.org/2000/svg">
    <symbol id="basket" viewBox="0 0 22 22" fill="none">
        <path d="M3.55859 8.72374L8.50277 1" stroke="black" stroke-miterlimit="10" stroke-linecap="round"/>
        <path d="M13.5626 1L18.5649 8.72374" stroke="black" stroke-miterlimit="10" stroke-linecap="round"/>
        <path d="M19.5143 11.6387H2.48571C1.68571 11.6387 1 10.9906 1 10.2345C1 9.47841 1.68571 8.83032 2.48571 8.83032H6.74286H11H19.5143C20.3143 8.83032 21 9.47841 21 10.2345C21 10.9906 20.3143 11.6387 19.5143 11.6387Z" stroke="black" stroke-miterlimit="10"/>
        <path d="M11.5053 11.6387H2.90503L4.23259 19.5553C4.23259 20.3643 4.86751 20.9999 5.67559 20.9999H11.5053H17.335C18.1431 20.9999 18.778 20.3643 18.778 19.5553L20.0479 11.6387H11.5053Z" stroke="black" stroke-miterlimit="10"/>
        <path d="M11.4763 13.511V19.1277" stroke="black" stroke-miterlimit="10" stroke-linecap="round"/>
        <path d="M17.1896 13.511L15.2849 19.1277" stroke="black" stroke-miterlimit="10" stroke-linecap="round"/>
        <path d="M5.76111 13.511L6.71349 19.1277" stroke="black" stroke-miterlimit="10" stroke-linecap="round"/>
    </symbol>
    <symbol id="home"  viewBox="0 0 25 22" fill="none">
        <path d="M2.76392 21H22.6185" stroke="black" stroke-linecap="round"/>
        <path d="M8.8728 19.5966V13.3558C8.8728 12.8534 9.0463 12.3665 9.36395 11.9773V11.9773C9.77802 11.4699 10.3982 11.1755 11.0531 11.1755H14.7107C15.3656 11.1755 15.9858 11.4699 16.3998 11.9773V11.9773C16.7175 12.3665 16.891 12.8534 16.891 13.3558V19.5966" stroke="black" stroke-linecap="round"/>
        <path d="M6.2 19.9474V9.77197H2L13.0727 1L23 9.77197H19.5636V19.9474" stroke="black" stroke-linecap="round"/>
    </symbol>
    <symbol id="catalog"  viewBox="0 0 21 21" fill="none" >
        <path d="M20.5 7.05882C20.5 10.6672 17.482 13.6176 13.7273 13.6176C9.97267 13.6176 6.95459 10.6672 6.95459 7.05882C6.95459 3.45045 9.97267 0.5 13.7273 0.5C17.482 0.5 20.5 3.45045 20.5 7.05882Z" stroke="black" stroke-linecap="round"/>
        <path d="M8.87879 12.3535L1 20.0006" stroke="black" stroke-linecap="round"/>
    </symbol>
    <symbol id="favorite"  viewBox="0 0 24 22" fill="none" >
        <path d="M3.40845 2.51114C5.85659 0.610412 9.37188 -0.253553 12.0083 4.58465C14.0798 -0.0807608 18.1601 0.668009 20.6082 2.51114C23.6213 4.87264 23.8096 8.78929 21.0476 11.3812L12.0083 21L8.05364 16.7378" stroke="black" stroke-miterlimit="10" stroke-linecap="round"/>
        <path d="M1.14705 8.38583C0.895638 7.29148 0.95849 6.13952 1.39845 5.04517" stroke="black" stroke-miterlimit="10" stroke-linecap="round"/>
    </symbol>
    <symbol id="profile"  viewBox="0 0 24 22" fill="none">
        <path d="M6.02857 20.5656V20.5656C6.02857 20.7535 5.82145 20.8661 5.66731 20.7587C2.84405 18.791 1 15.5432 1 11.8698C1 5.86656 5.92487 1 12 1C18.0751 1 23 5.86656 23 11.8698C23 15.5432 21.1559 18.791 18.3327 20.7587C18.1785 20.8661 17.9714 20.7535 17.9714 20.5656V20.5656" stroke="black"/>
        <path d="M15.585 8.14281C15.585 10.0908 13.9853 11.6801 11.9993 11.6801C10.0133 11.6801 8.41357 10.0908 8.41357 8.14281C8.41357 6.19479 10.0133 4.60547 11.9993 4.60547C13.9853 4.60547 15.585 6.19479 15.585 8.14281Z" stroke="black"/>
        <path d="M17.9702 20.5654V18.1516C17.9702 14.8537 15.2967 12.1802 11.9988 12.1802V12.1802C8.70084 12.1802 6.02734 14.8537 6.02734 18.1516V20.5654" stroke="black"/>
    </symbol>
    <symbol id="logo" width="104" height="62" viewBox="0 0 104 62" fill="none">
        <path d="M82.445 41.3957C93.8526 41.3957 103.111 32.137 103.111 20.6979C103.111 20.6663 103.111 20.6031 103.111 20.5715C103.048 9.19554 93.821 0 82.445 0C82.0026 0 81.5603 0 81.1179 0.0315998H5.24677C2.37119 0.0315998 -0.0619954 2.40158 0.00120419 5.27716C0.0644038 8.05795 2.33959 10.3015 5.12037 10.3015H46.0421C49.0441 10.3015 51.5089 12.7347 51.5089 15.7683V25.6906C51.5089 28.661 49.1073 31.0626 46.1369 31.0626H25.8498C22.9742 31.0626 20.5727 33.401 20.6043 36.3082C20.6675 39.0889 22.9426 41.3325 25.7234 41.3325H46.1369C49.1073 41.3325 51.5089 43.7341 51.5089 46.7045V56.8796C51.5089 59.7552 53.8788 62.062 56.7544 61.9988C59.5668 61.9356 61.7788 59.5972 61.7788 56.7848V54.9204V46.5149V41.3957V25.975C61.7788 25.9118 61.7788 25.8486 61.7788 25.7854V15.5471C61.7788 12.7347 64.054 10.4595 66.8664 10.4595H82.445C88.0382 10.4595 92.5886 14.9151 92.7466 20.4451C92.7466 20.5399 92.7466 20.6347 92.7466 20.7295C92.7466 20.7927 92.7466 20.8875 92.7466 20.9507C92.6202 26.5438 88.0698 31.031 82.445 31.031H76.3463C73.5023 31.031 71.1639 33.3378 71.1639 36.2134C71.1639 39.0573 73.4707 41.3957 76.3463 41.3957H82.445Z" fill="#836FE0"/>
        <path d="M82.445 41.3957C93.8526 41.3957 103.111 32.137 103.111 20.6979C103.111 20.6663 103.111 20.6031 103.111 20.5715C103.048 9.19554 93.821 0 82.445 0C82.0026 0 81.5603 0 81.1179 0.0315998H5.24677C2.37119 0.0315998 -0.0619954 2.40158 0.00120419 5.27716C0.0644038 8.05795 2.33959 10.3015 5.12037 10.3015H46.0421C49.0441 10.3015 51.5089 12.7347 51.5089 15.7683V25.6906C51.5089 28.661 49.1073 31.0626 46.1369 31.0626H25.8498C22.9742 31.0626 20.5727 33.401 20.6043 36.3082C20.6675 39.0889 22.9426 41.3325 25.7234 41.3325H46.1369C49.1073 41.3325 51.5089 43.7341 51.5089 46.7045V56.8796C51.5089 59.7552 53.8788 62.062 56.7544 61.9988C59.5668 61.9356 61.7788 59.5972 61.7788 56.7848V54.9204V46.5149V41.3957V25.975C61.7788 25.9118 61.7788 25.8486 61.7788 25.7854V15.5471C61.7788 12.7347 64.054 10.4595 66.8664 10.4595H82.445C88.0382 10.4595 92.5886 14.9151 92.7466 20.4451C92.7466 20.5399 92.7466 20.6347 92.7466 20.7295C92.7466 20.7927 92.7466 20.8875 92.7466 20.9507C92.6202 26.5438 88.0698 31.031 82.445 31.031H76.3463C73.5023 31.031 71.1639 33.3378 71.1639 36.2134C71.1639 39.0573 73.4707 41.3957 76.3463 41.3957H82.445Z" fill="#836FE0" style="mix-blend-mode:darken"/>
    </symbol>
</svg>