<svg width="375" height="667" viewBox="0 0 375 667" fill="none" xmlns="http://www.w3.org/2000/svg">
<rect width="375" height="667" rx="32" fill="white"/>
<path d="M73.1631 449.827H302.755" stroke="#3F3D56" stroke-miterlimit="10"/>
<path d="M200.821 267.44L263.378 345.396L141.859 448.966L45.7979 329.257C36.9984 318.291 38.5103 302.316 49.211 293.196L131.136 223.372C142.294 213.862 159.104 215.453 168.28 226.887L172.848 232.581L200.821 267.44Z" fill="#E8ECFA"/>
<path d="M296.212 386.313C298.856 386.313 301 384.176 301 381.54C301 378.904 298.856 376.767 296.212 376.767C293.568 376.767 291.425 378.904 291.425 381.54C291.425 384.176 293.568 386.313 296.212 386.313Z" stroke="#3F3D56" stroke-width="2" stroke-miterlimit="10"/>
<path d="M232.944 247.546C235.588 247.546 237.732 245.409 237.732 242.773C237.732 240.137 235.588 238 232.944 238C230.3 238 228.157 240.137 228.157 242.773C228.157 245.409 230.3 247.546 232.944 247.546Z" stroke="#3F3D56" stroke-width="2" stroke-miterlimit="10"/>
<path d="M87.3515 259.514C89.9955 259.514 92.1389 257.377 92.1389 254.741C92.1389 252.105 89.9955 249.968 87.3515 249.968C84.7074 249.968 82.564 252.105 82.564 254.741C82.564 257.377 84.7074 259.514 87.3515 259.514Z" stroke="#3F3D56" stroke-width="2" stroke-miterlimit="10"/>
<path d="M133.138 300.561L81.0551 311.172C79.5834 311.472 78.1977 312.096 76.9993 312.999C75.8009 313.902 74.8203 315.06 74.1292 316.39C73.4382 317.719 73.0542 319.186 73.0053 320.683C72.9565 322.18 73.2441 323.668 73.847 325.04L133.222 460.105C134.525 463.067 136.874 465.45 139.823 466.799C142.773 468.147 146.116 468.369 149.219 467.42L209.23 449.002C210.821 448.513 212.285 447.68 213.516 446.562C214.748 445.444 215.716 444.068 216.351 442.533C216.987 440.999 217.275 439.343 217.194 437.684C217.113 436.026 216.666 434.406 215.884 432.94L148.938 307.443C147.337 304.813 145.716 302.516 142.888 301.284C140.059 300.052 136.162 299.945 133.138 300.561Z" fill="#3F3D56"/>
<path d="M80.9888 312.488L89.5524 310.805C90.1286 311.998 91.2419 313.669 92.4246 314.271C93.6073 314.873 94.9554 315.073 96.2626 314.839L127.048 308.602C127.354 308.548 127.645 308.428 127.901 308.251C128.157 308.074 128.372 307.844 128.531 307.577C128.69 307.31 128.789 307.012 128.823 306.703C128.856 306.395 128.822 306.082 128.724 305.788L127.882 303.27L136.405 301.594C138.17 301.247 140.001 301.472 141.629 302.234C143.258 302.997 144.6 304.259 145.459 305.835L214.789 433.037C215.385 434.131 215.729 435.343 215.797 436.586C215.865 437.829 215.655 439.072 215.181 440.224C214.708 441.376 213.983 442.408 213.06 443.246C212.137 444.084 211.038 444.707 209.843 445.069L150.756 462.987C148.294 463.734 145.643 463.56 143.3 462.499C140.956 461.438 139.081 459.561 138.025 457.221L76.5657 321.028C76.1854 320.185 76.0009 319.268 76.0259 318.344C76.0509 317.421 76.2847 316.515 76.7099 315.694C77.1351 314.873 77.7408 314.158 78.4817 313.603C79.2226 313.048 80.0796 312.667 80.9888 312.488Z" fill="#9887DA"/>
<path d="M117.836 306.867L105.183 309.455" stroke="#2F2E41" stroke-width="2" stroke-miterlimit="10"/>
<path d="M101.938 311.072C102.655 311.072 103.236 310.565 103.236 309.94C103.236 309.315 102.655 308.808 101.938 308.808C101.221 308.808 100.64 309.315 100.64 309.94C100.64 310.565 101.221 311.072 101.938 311.072Z" fill="#2F2E41"/>
<path d="M110.374 322.07L166.18 441.429L243.724 420.404V417.816L183.376 305.573L111.672 321.099L111.331 321.355L110.374 322.07Z" fill="white"/>
<path opacity="0.2" d="M110.374 322.07L166.18 441.429L243.724 420.404V417.816L166.504 439.489L111.331 321.355L110.374 322.07Z" fill="black"/>
<path d="M172.993 414.581L178.253 425.996L178.509 426.549L179.405 426.323L222.959 415.228V413.611L217.119 402.613L173.967 414.258L173.581 414.387L172.993 414.581Z" fill="#9887DA"/>
<path opacity="0.2" d="M172.993 414.581L178.253 425.996L178.509 426.549L179.405 426.323L222.959 415.228V413.611L179.158 425.256L173.581 414.387L172.993 414.581Z" fill="black"/>
<path d="M209.981 372.531L152.877 387.087" stroke="#3F3D56" stroke-width="2" stroke-miterlimit="10"/>
<path d="M213.226 378.677L155.797 393.556" stroke="#3F3D56" stroke-width="2" stroke-miterlimit="10"/>
<path d="M205.763 387.087L169.749 396.791" stroke="#3F3D56" stroke-width="2" stroke-miterlimit="10"/>
<path d="M176.854 346.95C173.139 337.27 162.879 331.722 154.643 334.336C147.093 336.732 143.992 345.234 147.165 353.501C150.338 361.768 158.972 367.681 167.038 366.631C175.838 365.486 180.57 356.63 176.854 346.95Z" fill="#3F3D56" stroke="#3F3D56" stroke-width="2" stroke-miterlimit="10"/>
<path opacity="0.2" d="M176.854 346.95C173.139 337.27 162.879 331.722 154.643 334.336C147.093 336.732 143.992 345.234 147.165 353.501C150.338 361.768 158.972 367.681 167.038 366.631C175.838 365.486 180.57 356.63 176.854 346.95Z" fill="black"/>
<path d="M178.476 345.333C174.761 335.652 164.501 330.105 156.265 332.719C148.715 335.114 145.614 343.617 148.787 351.884C151.96 360.151 160.594 366.064 168.66 365.014C177.46 363.868 182.192 355.013 178.476 345.333Z" fill="#3F3D56" stroke="#3F3D56" stroke-width="2" stroke-miterlimit="10"/>
<path d="M160.826 351.071C159.978 350.759 159.297 350.132 158.934 349.317C158.57 348.503 158.549 347.582 158.893 346.741C159.227 345.903 159.88 345.223 160.717 344.851C161.554 344.479 162.493 344.44 163.345 344.762C164.193 345.074 164.874 345.702 165.237 346.516C165.485 347.072 165.577 347.674 165.501 348.271L169.555 349.764C170.571 346.063 168.638 342.181 164.937 340.817C162.94 340.074 160.819 340.213 159.007 341.018C157.194 341.823 155.671 343.304 154.895 345.268C153.329 349.19 155.279 353.559 159.249 355.022L166.439 357.671L168.016 353.721L160.826 351.071Z" fill="white"/>
<path d="M256.799 312.253C263.394 312.253 268.739 306.924 268.739 300.35C268.739 293.776 263.394 288.446 256.799 288.446C250.205 288.446 244.86 293.776 244.86 300.35C244.86 306.924 250.205 312.253 256.799 312.253Z" fill="#2F2E41"/>
<path d="M269.68 449.515L271.951 459.219H266.436L264.165 448.222L269.68 449.515Z" fill="#9F616A"/>
<path d="M243.075 449.516V458.573L237.559 459.22V449.516H243.075Z" fill="#9F616A"/>
<path d="M271.303 346.653C271.303 346.653 270.654 360.563 270.005 361.533C269.356 362.503 263.516 376.412 263.516 376.412L260.596 367.355C260.596 367.355 265.138 359.916 264.489 355.711C263.84 351.505 264.249 346.331 264.249 346.331L271.303 346.653Z" fill="#9F616A"/>
<path d="M252.809 313.013C257.826 313.013 261.893 308.958 261.893 303.956C261.893 298.954 257.826 294.899 252.809 294.899C247.791 294.899 243.724 298.954 243.724 303.956C243.724 308.958 247.791 313.013 252.809 313.013Z" fill="#9F616A"/>
<path d="M260.271 304.926C260.271 304.926 259.947 317.865 262.218 319.806C264.489 321.746 249.24 320.129 249.24 320.129C249.24 320.129 252.484 311.072 249.889 309.131C247.293 307.19 260.271 304.926 260.271 304.926Z" fill="#9F616A"/>
<path d="M248.266 319.482C248.266 319.482 250.213 315.924 252.809 316.247C255.404 316.571 263.84 317.218 264.165 317.865C264.489 318.512 265.462 320.776 266.111 321.423C266.76 322.07 271.627 323.04 271.951 326.922C272.276 330.803 260.271 354.417 260.271 354.417C260.271 354.417 261.893 359.915 261.569 361.209C261.244 362.503 263.191 366.385 262.867 368.002C262.542 369.62 267.734 379.324 265.138 391.939V412.317C265.138 412.317 273.898 447.575 271.303 450.163C268.707 452.75 259.947 451.133 258.324 450.163C256.702 449.192 249.889 400.349 249.889 400.349L246.644 383.852L246.32 420.08C246.32 420.08 246.969 450.486 244.697 451.457C242.426 452.427 233.666 452.75 233.017 450.81C232.511 449.296 230.031 409.021 228.964 391.367C228.595 385.274 229.076 379.158 230.393 373.196C231.743 367.09 233.704 359.916 235.937 357.004C240.155 351.505 242.751 334.038 242.751 334.038L237.235 324.011C237.235 324.011 240.479 320.776 242.426 320.776C244.373 320.776 248.266 319.482 248.266 319.482Z" fill="#2F2E41"/>
<path d="M270.005 324.658L271.716 325.819C271.716 325.819 272.925 346.653 271.951 347.947C270.978 349.241 264.211 348.61 263.701 347.47C263.191 346.33 270.005 324.658 270.005 324.658Z" fill="#2F2E41"/>
<path d="M241.071 343.601C242.021 350.169 242.853 356.017 237.997 361.307C233.117 366.66 227.612 371.413 221.601 375.465C221.006 377.038 212.262 388.589 211.817 383.982C211.372 379.374 214.393 375.762 218.686 371.866C222.979 367.969 228.985 359.516 232.374 354.877C235.762 350.238 234.367 347.346 234.25 343.471C234.132 339.597 239.739 343.648 241.071 343.601Z" fill="#9F616A"/>
<path d="M237.559 453.332C237.559 453.332 237.235 456.955 236.262 457.926C235.288 458.896 232.693 460.19 233.017 463.748C233.341 467.306 235.45 467.468 235.45 467.468L235.288 466.659L236.262 466.983L236.424 467.468H245.508C245.508 467.468 245.671 464.071 245.346 462.454C245.022 460.837 245.022 453.074 244.048 453.397C243.075 453.721 240.479 454.044 239.831 455.338C239.182 456.632 237.235 456.178 237.559 453.332Z" fill="#2F2E41"/>
<path d="M270.654 453.332C270.654 453.332 270.978 456.955 271.951 457.926C272.925 458.896 275.52 460.19 275.196 463.748C274.872 467.306 272.763 467.468 272.763 467.468L272.925 466.659L271.951 466.983L271.789 467.468H262.704C262.704 467.468 262.542 464.071 262.867 462.454C263.191 460.837 263.191 453.074 264.165 453.397C265.138 453.721 267.734 454.044 268.382 455.338C269.031 456.632 270.978 456.178 270.654 453.332Z" fill="#2F2E41"/>
<path d="M241.777 323.041L237.235 324.011C237.235 324.011 237.235 331.127 235.937 334.039C234.639 336.95 232.368 343.742 233.342 344.066C234.315 344.389 243.4 348.918 244.049 346.33C244.697 343.742 246.32 323.041 241.777 323.041Z" fill="#2F2E41"/>
<path d="M269.734 296.58C276.328 296.58 281.674 291.251 281.674 284.677C281.674 278.103 276.328 272.773 269.734 272.773C263.14 272.773 257.794 278.103 257.794 284.677C257.794 291.251 263.14 296.58 269.734 296.58Z" fill="#2F2E41"/>
<path d="M280.033 294.534C278.487 295.648 276.697 296.376 274.811 296.658C272.926 296.941 271 296.769 269.194 296.157C267.389 295.545 265.757 294.511 264.435 293.141C263.113 291.771 262.139 290.106 261.595 288.284C261.801 289.916 262.344 291.489 263.19 292.902C264.036 294.315 265.167 295.537 266.511 296.492C267.855 297.447 269.383 298.114 270.999 298.451C272.615 298.788 274.283 298.787 275.898 298.448C277.514 298.11 279.041 297.441 280.384 296.484C281.727 295.527 282.856 294.303 283.701 292.89C284.545 291.476 285.087 289.903 285.291 288.27C285.495 286.637 285.357 284.979 284.886 283.402C285.153 285.521 284.844 287.673 283.99 289.631C283.136 291.59 281.769 293.284 280.033 294.534Z" fill="#2F2E41"/>
<path d="M259.983 311.063C264.819 311.063 268.739 307.155 268.739 302.334C268.739 297.513 264.819 293.604 259.983 293.604C255.148 293.604 251.227 297.513 251.227 302.334C251.227 307.155 255.148 311.063 259.983 311.063Z" fill="#2F2E41"/>
<path d="M252.621 305.111C256.907 305.111 260.381 302.402 260.381 299.06C260.381 295.718 256.907 293.009 252.621 293.009C248.334 293.009 244.86 295.718 244.86 299.06C244.86 302.402 248.334 305.111 252.621 305.111Z" fill="#2F2E41"/>
<path d="M250.55 307.859C251.364 307.859 252.023 306.696 252.023 305.261C252.023 303.826 251.364 302.663 250.55 302.663C249.737 302.663 249.077 303.826 249.077 305.261C249.077 306.696 249.737 307.859 250.55 307.859Z" fill="#A0616A"/>
<path d="M204.612 267.905C204.612 276.776 197.398 283.974 188.489 283.974C179.581 283.974 172.367 276.776 172.367 267.905C172.367 259.035 179.581 251.836 188.489 251.836C197.398 251.836 204.612 259.035 204.612 267.905Z" fill="#E8ECFA" stroke="white" stroke-width="3"/>
<path d="M57.2812 124.258L59.9609 110.094H64.0488L59.6328 130H55.5039L52.2637 116.684L49.0234 130H44.8945L40.4785 110.094H44.5664L47.2598 124.23L50.541 110.094H54.0137L57.2812 124.258ZM72.3887 130.273C70.2194 130.273 68.4512 129.608 67.084 128.277C65.7259 126.947 65.0469 125.174 65.0469 122.959V122.576C65.0469 121.09 65.334 119.764 65.9082 118.598C66.4824 117.422 67.2936 116.52 68.3418 115.891C69.3991 115.253 70.6022 114.934 71.9512 114.934C73.9746 114.934 75.5651 115.572 76.7227 116.848C77.8893 118.124 78.4727 119.933 78.4727 122.275V123.889H69.0527C69.1803 124.855 69.5632 125.63 70.2012 126.213C70.8483 126.796 71.6641 127.088 72.6484 127.088C74.1706 127.088 75.36 126.536 76.2168 125.434L78.1582 127.607C77.5658 128.446 76.7637 129.102 75.752 129.576C74.7402 130.041 73.6191 130.273 72.3887 130.273ZM71.9375 118.133C71.1536 118.133 70.5156 118.397 70.0234 118.926C69.5404 119.454 69.2305 120.211 69.0938 121.195H74.5898V120.881C74.5716 120.006 74.3346 119.331 73.8789 118.857C73.4232 118.374 72.776 118.133 71.9375 118.133ZM84.8984 130H80.9336V109H84.8984V130ZM94.3184 127.088C95.0475 127.088 95.64 126.887 96.0957 126.486C96.5514 126.085 96.7884 125.552 96.8066 124.887H100.512C100.503 125.889 100.229 126.81 99.6914 127.648C99.1536 128.478 98.4154 129.125 97.4766 129.59C96.5469 130.046 95.5169 130.273 94.3867 130.273C92.2721 130.273 90.6042 129.604 89.3828 128.264C88.1615 126.915 87.5508 125.055 87.5508 122.686V122.426C87.5508 120.147 88.1569 118.329 89.3691 116.971C90.5814 115.613 92.2448 114.934 94.3594 114.934C96.2096 114.934 97.6908 115.462 98.8027 116.52C99.9238 117.568 100.493 118.967 100.512 120.717H96.8066C96.7884 119.951 96.5514 119.331 96.0957 118.857C95.64 118.374 95.0384 118.133 94.291 118.133C93.3704 118.133 92.6732 118.47 92.1992 119.145C91.7344 119.81 91.502 120.895 91.502 122.398V122.809C91.502 124.331 91.7344 125.424 92.1992 126.09C92.6641 126.755 93.3704 127.088 94.3184 127.088ZM102.152 122.467C102.152 120.999 102.435 119.691 103 118.543C103.565 117.395 104.376 116.506 105.434 115.877C106.5 115.248 107.735 114.934 109.139 114.934C111.135 114.934 112.762 115.544 114.02 116.766C115.286 117.987 115.993 119.646 116.139 121.742L116.166 122.754C116.166 125.023 115.533 126.846 114.266 128.223C112.999 129.59 111.299 130.273 109.166 130.273C107.033 130.273 105.329 129.59 104.053 128.223C102.786 126.855 102.152 124.996 102.152 122.645V122.467ZM106.104 122.754C106.104 124.158 106.368 125.233 106.896 125.98C107.425 126.719 108.182 127.088 109.166 127.088C110.123 127.088 110.87 126.723 111.408 125.994C111.946 125.256 112.215 124.08 112.215 122.467C112.215 121.09 111.946 120.024 111.408 119.268C110.87 118.511 110.114 118.133 109.139 118.133C108.173 118.133 107.425 118.511 106.896 119.268C106.368 120.015 106.104 121.177 106.104 122.754ZM122.305 115.207L122.428 116.861C123.476 115.576 124.893 114.934 126.68 114.934C128.585 114.934 129.893 115.686 130.604 117.189C131.643 115.686 133.124 114.934 135.047 114.934C136.651 114.934 137.845 115.403 138.629 116.342C139.413 117.271 139.805 118.675 139.805 120.553V130H135.84V120.566C135.84 119.728 135.676 119.117 135.348 118.734C135.02 118.342 134.441 118.146 133.611 118.146C132.426 118.146 131.606 118.712 131.15 119.842L131.164 130H127.213V120.58C127.213 119.723 127.044 119.104 126.707 118.721C126.37 118.338 125.796 118.146 124.984 118.146C123.863 118.146 123.052 118.611 122.551 119.541V130H118.6V115.207H122.305ZM149.662 130.273C147.493 130.273 145.725 129.608 144.357 128.277C142.999 126.947 142.32 125.174 142.32 122.959V122.576C142.32 121.09 142.607 119.764 143.182 118.598C143.756 117.422 144.567 116.52 145.615 115.891C146.673 115.253 147.876 114.934 149.225 114.934C151.248 114.934 152.839 115.572 153.996 116.848C155.163 118.124 155.746 119.933 155.746 122.275V123.889H146.326C146.454 124.855 146.837 125.63 147.475 126.213C148.122 126.796 148.938 127.088 149.922 127.088C151.444 127.088 152.633 126.536 153.49 125.434L155.432 127.607C154.839 128.446 154.037 129.102 153.025 129.576C152.014 130.041 150.893 130.273 149.662 130.273ZM149.211 118.133C148.427 118.133 147.789 118.397 147.297 118.926C146.814 119.454 146.504 120.211 146.367 121.195H151.863V120.881C151.845 120.006 151.608 119.331 151.152 118.857C150.697 118.374 150.049 118.133 149.211 118.133ZM46.248 156.57V160.207H48.7773V163.105H46.248V170.488C46.248 171.035 46.3529 171.427 46.5625 171.664C46.7721 171.901 47.1732 172.02 47.7656 172.02C48.2031 172.02 48.5905 171.988 48.9277 171.924V174.918C48.153 175.155 47.3555 175.273 46.5352 175.273C43.7643 175.273 42.3516 173.874 42.2969 171.076V163.105H40.1367V160.207H42.2969V156.57H46.248ZM49.9531 167.467C49.9531 165.999 50.2357 164.691 50.8008 163.543C51.3659 162.395 52.1771 161.506 53.2344 160.877C54.3008 160.248 55.5358 159.934 56.9395 159.934C58.9355 159.934 60.5625 160.544 61.8203 161.766C63.0872 162.987 63.7936 164.646 63.9395 166.742L63.9668 167.754C63.9668 170.023 63.3333 171.846 62.0664 173.223C60.7995 174.59 59.0996 175.273 56.9668 175.273C54.834 175.273 53.1296 174.59 51.8535 173.223C50.5866 171.855 49.9531 169.996 49.9531 167.645V167.467ZM53.9043 167.754C53.9043 169.158 54.1686 170.233 54.6973 170.98C55.2259 171.719 55.9824 172.088 56.9668 172.088C57.9238 172.088 58.6712 171.723 59.209 170.994C59.7467 170.256 60.0156 169.08 60.0156 167.467C60.0156 166.09 59.7467 165.024 59.209 164.268C58.6712 163.511 57.9147 163.133 56.9395 163.133C55.9733 163.133 55.2259 163.511 54.6973 164.268C54.1686 165.015 53.9043 166.177 53.9043 167.754ZM78.1035 156.57V160.207H80.6328V163.105H78.1035V170.488C78.1035 171.035 78.2083 171.427 78.418 171.664C78.6276 171.901 79.0286 172.02 79.6211 172.02C80.0586 172.02 80.446 171.988 80.7832 171.924V174.918C80.0085 175.155 79.2109 175.273 78.3906 175.273C75.6198 175.273 74.207 173.874 74.1523 171.076V163.105H71.9922V160.207H74.1523V156.57H78.1035ZM86.6895 161.82C87.7376 160.562 89.0547 159.934 90.6406 159.934C93.849 159.934 95.4759 161.798 95.5215 165.525V175H91.5703V165.635C91.5703 164.787 91.388 164.163 91.0234 163.762C90.6589 163.352 90.0527 163.146 89.2051 163.146C88.0475 163.146 87.209 163.593 86.6895 164.486V175H82.7383V154H86.6895V161.82ZM105.311 175.273C103.141 175.273 101.373 174.608 100.006 173.277C98.6478 171.947 97.9688 170.174 97.9688 167.959V167.576C97.9688 166.09 98.2559 164.764 98.8301 163.598C99.4043 162.422 100.215 161.52 101.264 160.891C102.321 160.253 103.524 159.934 104.873 159.934C106.896 159.934 108.487 160.572 109.645 161.848C110.811 163.124 111.395 164.933 111.395 167.275V168.889H101.975C102.102 169.855 102.485 170.63 103.123 171.213C103.77 171.796 104.586 172.088 105.57 172.088C107.092 172.088 108.282 171.536 109.139 170.434L111.08 172.607C110.488 173.446 109.686 174.102 108.674 174.576C107.662 175.041 106.541 175.273 105.311 175.273ZM104.859 163.133C104.076 163.133 103.438 163.397 102.945 163.926C102.462 164.454 102.152 165.211 102.016 166.195H107.512V165.881C107.493 165.006 107.257 164.331 106.801 163.857C106.345 163.374 105.698 163.133 104.859 163.133ZM136.51 168.369C136.355 170.511 135.562 172.197 134.131 173.428C132.709 174.658 130.831 175.273 128.498 175.273C125.946 175.273 123.936 174.417 122.469 172.703C121.01 170.98 120.281 168.62 120.281 165.621V164.404C120.281 162.49 120.618 160.804 121.293 159.346C121.967 157.887 122.929 156.771 124.178 155.996C125.436 155.212 126.894 154.82 128.553 154.82C130.85 154.82 132.7 155.436 134.104 156.666C135.507 157.896 136.318 159.624 136.537 161.848H132.436C132.335 160.562 131.975 159.633 131.355 159.059C130.745 158.475 129.811 158.184 128.553 158.184C127.186 158.184 126.16 158.676 125.477 159.66C124.802 160.635 124.456 162.153 124.438 164.213V165.717C124.438 167.868 124.761 169.44 125.408 170.434C126.064 171.427 127.094 171.924 128.498 171.924C129.765 171.924 130.708 171.637 131.328 171.062C131.957 170.479 132.317 169.581 132.408 168.369H136.51ZM147.256 163.912C146.718 163.839 146.244 163.803 145.834 163.803C144.339 163.803 143.359 164.309 142.895 165.32V175H138.943V160.207H142.676L142.785 161.971C143.578 160.613 144.676 159.934 146.08 159.934C146.518 159.934 146.928 159.993 147.311 160.111L147.256 163.912ZM148.062 167.467C148.062 165.999 148.345 164.691 148.91 163.543C149.475 162.395 150.286 161.506 151.344 160.877C152.41 160.248 153.645 159.934 155.049 159.934C157.045 159.934 158.672 160.544 159.93 161.766C161.197 162.987 161.903 164.646 162.049 166.742L162.076 167.754C162.076 170.023 161.443 171.846 160.176 173.223C158.909 174.59 157.209 175.273 155.076 175.273C152.943 175.273 151.239 174.59 149.963 173.223C148.696 171.855 148.062 169.996 148.062 167.645V167.467ZM152.014 167.754C152.014 169.158 152.278 170.233 152.807 170.98C153.335 171.719 154.092 172.088 155.076 172.088C156.033 172.088 156.781 171.723 157.318 170.994C157.856 170.256 158.125 169.08 158.125 167.467C158.125 166.09 157.856 165.024 157.318 164.268C156.781 163.511 156.024 163.133 155.049 163.133C154.083 163.133 153.335 163.511 152.807 164.268C152.278 165.015 152.014 166.177 152.014 167.754ZM177.375 169.627L179.316 160.207H183.131L179.357 175H176.049L173.246 165.689L170.443 175H167.148L163.375 160.207H167.189L169.117 169.613L171.824 160.207H174.682L177.375 169.627ZM184.484 167.494C184.484 165.188 184.999 163.352 186.029 161.984C187.068 160.617 188.486 159.934 190.281 159.934C191.721 159.934 192.911 160.471 193.85 161.547V154H197.814V175H194.246L194.055 173.428C193.07 174.658 191.803 175.273 190.254 175.273C188.513 175.273 187.114 174.59 186.057 173.223C185.008 171.846 184.484 169.937 184.484 167.494ZM188.436 167.781C188.436 169.167 188.677 170.229 189.16 170.967C189.643 171.705 190.345 172.074 191.266 172.074C192.487 172.074 193.348 171.559 193.85 170.529V164.691C193.357 163.661 192.505 163.146 191.293 163.146C189.388 163.146 188.436 164.691 188.436 167.781Z" fill="#14263C"/>
<path d="M44.3213 83.1348C44.3213 82.8581 44.2236 82.6465 44.0283 82.5C43.833 82.3503 43.4814 82.194 42.9736 82.0312C42.4658 81.8652 42.0638 81.7025 41.7676 81.543C40.9603 81.1068 40.5566 80.5192 40.5566 79.7803C40.5566 79.3962 40.6641 79.0544 40.8789 78.7549C41.097 78.4521 41.4079 78.2161 41.8115 78.0469C42.2184 77.8776 42.6742 77.793 43.1787 77.793C43.6865 77.793 44.139 77.8857 44.5361 78.0713C44.9333 78.2536 45.2409 78.5124 45.459 78.8477C45.6803 79.1829 45.791 79.5638 45.791 79.9902H44.3262C44.3262 79.6647 44.2236 79.4124 44.0186 79.2334C43.8135 79.0511 43.5254 78.96 43.1543 78.96C42.7962 78.96 42.5179 79.0365 42.3193 79.1895C42.1208 79.3392 42.0215 79.5378 42.0215 79.7852C42.0215 80.0163 42.137 80.21 42.3682 80.3662C42.6025 80.5225 42.946 80.6689 43.3984 80.8057C44.2318 81.0563 44.8389 81.3672 45.2197 81.7383C45.6006 82.1094 45.791 82.5716 45.791 83.125C45.791 83.7402 45.5583 84.2236 45.0928 84.5752C44.6273 84.9235 44.0007 85.0977 43.2129 85.0977C42.666 85.0977 42.168 84.9984 41.7188 84.7998C41.2695 84.598 40.9261 84.3229 40.6885 83.9746C40.4541 83.6263 40.3369 83.2227 40.3369 82.7637H41.8066C41.8066 83.5482 42.2754 83.9404 43.2129 83.9404C43.5612 83.9404 43.833 83.8704 44.0283 83.7305C44.2236 83.5872 44.3213 83.3887 44.3213 83.1348ZM48.6447 85H47.1799V77.8906H48.6447V85ZM55.932 84.1016C55.6684 84.4173 55.2956 84.6631 54.8139 84.8389C54.3321 85.0114 53.7982 85.0977 53.2123 85.0977C52.5971 85.0977 52.0567 84.9642 51.5912 84.6973C51.129 84.4271 50.7709 84.0365 50.517 83.5254C50.2663 83.0143 50.1378 82.4137 50.1313 81.7236V81.2402C50.1313 80.5306 50.2501 79.917 50.4877 79.3994C50.7286 78.8786 51.0736 78.4814 51.5229 78.208C51.9753 77.9313 52.5043 77.793 53.1098 77.793C53.9529 77.793 54.612 77.9948 55.0873 78.3984C55.5626 78.7988 55.8441 79.3831 55.932 80.1514H54.5063C54.4411 79.7445 54.2963 79.4466 54.0717 79.2578C53.8503 79.069 53.5443 78.9746 53.1537 78.9746C52.6557 78.9746 52.2764 79.1618 52.016 79.5361C51.7556 79.9105 51.6238 80.4671 51.6205 81.2061V81.6602C51.6205 82.4056 51.7621 82.9688 52.0453 83.3496C52.3285 83.7305 52.7436 83.9209 53.2904 83.9209C53.8406 83.9209 54.2328 83.8037 54.4672 83.5693V82.3438H53.1342V81.2646H55.932V84.1016ZM63.2047 85H61.7398L58.8883 80.3223V85H57.4234V77.8906H58.8883L61.7447 82.5781V77.8906H63.2047V85ZM69.1318 85H67.667V77.8906H69.1318V85ZM76.5754 85H75.1105L72.259 80.3223V85H70.7941V77.8906H72.259L75.1154 82.5781V77.8906H76.5754V85ZM86.7848 81.6064C86.7848 82.3063 86.6611 82.9199 86.4137 83.4473C86.1663 83.9746 85.8115 84.3815 85.3492 84.668C84.8902 84.9544 84.3629 85.0977 83.7672 85.0977C83.178 85.0977 82.6523 84.9561 82.19 84.6729C81.7278 84.3896 81.3697 83.986 81.1158 83.4619C80.8619 82.9346 80.7333 82.3291 80.7301 81.6455V81.2939C80.7301 80.5941 80.8554 79.9788 81.1061 79.4482C81.36 78.9144 81.7164 78.5059 82.1754 78.2227C82.6376 77.9362 83.165 77.793 83.7574 77.793C84.3499 77.793 84.8756 77.9362 85.3346 78.2227C85.7968 78.5059 86.1533 78.9144 86.4039 79.4482C86.6578 79.9788 86.7848 80.5924 86.7848 81.2891V81.6064ZM85.3004 81.2842C85.3004 80.5387 85.1669 79.9723 84.9 79.585C84.6331 79.1976 84.2522 79.0039 83.7574 79.0039C83.2659 79.0039 82.8867 79.196 82.6197 79.5801C82.3528 79.9609 82.2177 80.5208 82.2145 81.2598V81.6064C82.2145 82.3324 82.3479 82.8955 82.6148 83.2959C82.8818 83.6963 83.2659 83.8965 83.7672 83.8965C84.2587 83.8965 84.6363 83.7044 84.9 83.3203C85.1637 82.9329 85.2971 82.3698 85.3004 81.6309V81.2842ZM90.7811 82.3975H89.6141V85H88.1492V77.8906H90.7908C91.6307 77.8906 92.2785 78.0778 92.7342 78.4521C93.1899 78.8265 93.4178 79.3555 93.4178 80.0391C93.4178 80.5241 93.312 80.9294 93.1004 81.2549C92.8921 81.5771 92.5747 81.8343 92.1482 82.0264L93.6863 84.9316V85H92.1141L90.7811 82.3975ZM89.6141 81.2109H90.7957C91.1635 81.2109 91.4484 81.1182 91.6502 80.9326C91.852 80.7438 91.9529 80.485 91.9529 80.1562C91.9529 79.821 91.8569 79.5573 91.6648 79.3652C91.476 79.1732 91.1847 79.0771 90.7908 79.0771H89.6141V81.2109ZM103.207 82.6318C103.152 83.3968 102.869 83.999 102.358 84.4385C101.85 84.8779 101.179 85.0977 100.346 85.0977C99.4344 85.0977 98.7167 84.7917 98.1926 84.1797C97.6717 83.5645 97.4113 82.7214 97.4113 81.6504V81.2158C97.4113 80.5322 97.5318 79.93 97.7727 79.4092C98.0135 78.8883 98.357 78.4896 98.8029 78.2129C99.2521 77.9329 99.773 77.793 100.365 77.793C101.186 77.793 101.847 78.0127 102.348 78.4521C102.849 78.8916 103.139 79.5085 103.217 80.3027H101.752C101.716 79.8438 101.588 79.5117 101.366 79.3066C101.148 79.0983 100.815 78.9941 100.365 78.9941C99.8771 78.9941 99.5109 79.1699 99.2668 79.5215C99.0259 79.8698 98.9022 80.4118 98.8957 81.1475V81.6846C98.8957 82.4528 99.0113 83.0143 99.2424 83.3691C99.4768 83.724 99.8446 83.9014 100.346 83.9014C100.798 83.9014 101.135 83.7988 101.357 83.5938C101.581 83.3854 101.71 83.0648 101.742 82.6318H103.207ZM107.101 82.3975H105.934V85H104.469V77.8906H107.111C107.951 77.8906 108.598 78.0778 109.054 78.4521C109.51 78.8265 109.738 79.3555 109.738 80.0391C109.738 80.5241 109.632 80.9294 109.42 81.2549C109.212 81.5771 108.895 81.8343 108.468 82.0264L110.006 84.9316V85H108.434L107.101 82.3975ZM105.934 81.2109H107.116C107.483 81.2109 107.768 81.1182 107.97 80.9326C108.172 80.7438 108.273 80.485 108.273 80.1562C108.273 79.821 108.177 79.5573 107.985 79.3652C107.796 79.1732 107.505 79.0771 107.111 79.0771H105.934V81.2109ZM115.433 81.9189H112.621V83.8232H115.921V85H111.156V77.8906H115.912V79.0771H112.621V80.7715H115.433V81.9189ZM121.095 83.5352H118.526L118.038 85H116.48L119.127 77.8906H120.484L123.145 85H121.588L121.095 83.5352ZM118.922 82.3486H120.699L119.805 79.6875L118.922 82.3486ZM128.875 79.0771H126.697V85H125.232V79.0771H123.084V77.8906H128.875V79.0771ZM134.292 81.9189H131.48V83.8232H134.78V85H130.015V77.8906H134.771V79.0771H131.48V80.7715H134.292V81.9189ZM142.744 83.5352H140.175L139.687 85H138.129L140.776 77.8906H142.133L144.795 85H143.237L142.744 83.5352ZM140.571 82.3486H142.348L141.455 79.6875L140.571 82.3486ZM151.54 85H150.075L147.223 80.3223V85H145.759V77.8906H147.223L150.08 82.5781V77.8906H151.54V85ZM159.923 83.5352H157.355L156.866 85H155.309L157.955 77.8906H159.313L161.974 85H160.416L159.923 83.5352ZM157.75 82.3486H159.528L158.634 79.6875L157.75 82.3486ZM168.412 82.6318C168.356 83.3968 168.073 83.999 167.562 84.4385C167.054 84.8779 166.384 85.0977 165.55 85.0977C164.639 85.0977 163.921 84.7917 163.397 84.1797C162.876 83.5645 162.616 82.7214 162.616 81.6504V81.2158C162.616 80.5322 162.736 79.93 162.977 79.4092C163.218 78.8883 163.561 78.4896 164.007 78.2129C164.456 77.9329 164.977 77.793 165.57 77.793C166.39 77.793 167.051 78.0127 167.552 78.4521C168.053 78.8916 168.343 79.5085 168.421 80.3027H166.956C166.921 79.8438 166.792 79.5117 166.571 79.3066C166.353 79.0983 166.019 78.9941 165.57 78.9941C165.081 78.9941 164.715 79.1699 164.471 79.5215C164.23 79.8698 164.107 80.4118 164.1 81.1475V81.6846C164.1 82.4528 164.216 83.0143 164.447 83.3691C164.681 83.724 165.049 83.9014 165.55 83.9014C166.003 83.9014 166.34 83.7988 166.561 83.5938C166.786 83.3854 166.914 83.0648 166.947 82.6318H168.412ZM175.254 82.6318C175.199 83.3968 174.916 83.999 174.405 84.4385C173.897 84.8779 173.226 85.0977 172.393 85.0977C171.482 85.0977 170.764 84.7917 170.24 84.1797C169.719 83.5645 169.459 82.7214 169.459 81.6504V81.2158C169.459 80.5322 169.579 79.93 169.82 79.4092C170.061 78.8883 170.404 78.4896 170.85 78.2129C171.299 77.9329 171.82 77.793 172.413 77.793C173.233 77.793 173.894 78.0127 174.395 78.4521C174.896 78.8916 175.186 79.5085 175.264 80.3027H173.799C173.764 79.8438 173.635 79.5117 173.414 79.3066C173.196 79.0983 172.862 78.9941 172.413 78.9941C171.924 78.9941 171.558 79.1699 171.314 79.5215C171.073 79.8698 170.949 80.4118 170.943 81.1475V81.6846C170.943 82.4528 171.059 83.0143 171.29 83.3691C171.524 83.724 171.892 83.9014 172.393 83.9014C172.846 83.9014 173.183 83.7988 173.404 83.5938C173.629 83.3854 173.757 83.0648 173.79 82.6318H175.254ZM182.356 81.6064C182.356 82.3063 182.233 82.9199 181.985 83.4473C181.738 83.9746 181.383 84.3815 180.921 84.668C180.462 84.9544 179.934 85.0977 179.339 85.0977C178.749 85.0977 178.224 84.9561 177.762 84.6729C177.299 84.3896 176.941 83.986 176.687 83.4619C176.433 82.9346 176.305 82.3291 176.302 81.6455V81.2939C176.302 80.5941 176.427 79.9788 176.678 79.4482C176.931 78.9144 177.288 78.5059 177.747 78.2227C178.209 77.9362 178.736 77.793 179.329 77.793C179.921 77.793 180.447 77.9362 180.906 78.2227C181.368 78.5059 181.725 78.9144 181.975 79.4482C182.229 79.9788 182.356 80.5924 182.356 81.2891V81.6064ZM180.872 81.2842C180.872 80.5387 180.738 79.9723 180.471 79.585C180.205 79.1976 179.824 79.0039 179.329 79.0039C178.837 79.0039 178.458 79.196 178.191 79.5801C177.924 79.9609 177.789 80.5208 177.786 81.2598V81.6064C177.786 82.3324 177.919 82.8955 178.186 83.2959C178.453 83.6963 178.837 83.8965 179.339 83.8965C179.83 83.8965 180.208 83.7044 180.471 83.3203C180.735 82.9329 180.869 82.3698 180.872 81.6309V81.2842ZM189.102 77.8906V82.5732C189.102 83.3512 188.857 83.9665 188.369 84.4189C187.884 84.8714 187.22 85.0977 186.377 85.0977C185.547 85.0977 184.888 84.8779 184.399 84.4385C183.911 83.999 183.662 83.3952 183.652 82.627V77.8906H185.117V82.583C185.117 83.0485 185.228 83.3887 185.449 83.6035C185.674 83.8151 185.983 83.9209 186.377 83.9209C187.201 83.9209 187.619 83.488 187.632 82.6221V77.8906H189.102ZM196.384 85H194.919L192.068 80.3223V85H190.603V77.8906H192.068L194.924 82.5781V77.8906H196.384V85ZM203.168 79.0771H200.991V85H199.526V79.0771H197.377V77.8906H203.168V79.0771Z" fill="#A1A8B1"/>
<path d="M52.6582 634V625.469H55.4473C56.373 625.469 57.0684 625.66 57.5332 626.043C58.002 626.426 58.2363 626.992 58.2363 627.742C58.2363 628.141 58.123 628.494 57.8965 628.803C57.6699 629.107 57.3613 629.344 56.9707 629.512C57.4316 629.641 57.7949 629.887 58.0605 630.25C58.3301 630.609 58.4648 631.039 58.4648 631.539C58.4648 632.305 58.2168 632.906 57.7207 633.344C57.2246 633.781 56.5234 634 55.6172 634H52.6582ZM53.7832 630.01V633.08H55.6406C56.1641 633.08 56.5762 632.945 56.877 632.676C57.1816 632.402 57.334 632.027 57.334 631.551C57.334 630.523 56.7754 630.01 55.6582 630.01H53.7832ZM53.7832 629.107H55.4824C55.9746 629.107 56.3672 628.984 56.6602 628.738C56.957 628.492 57.1055 628.158 57.1055 627.736C57.1055 627.268 56.9688 626.928 56.6953 626.717C56.4219 626.502 56.0059 626.395 55.4473 626.395H53.7832V629.107ZM62.0391 632.412L63.5156 627.66H64.6758L62.127 634.979C61.7324 636.033 61.1055 636.561 60.2461 636.561L60.041 636.543L59.6367 636.467V635.588L59.9297 635.611C60.2969 635.611 60.582 635.537 60.7852 635.389C60.9922 635.24 61.1621 634.969 61.2949 634.574L61.5352 633.93L59.2734 627.66H60.457L62.0391 632.412ZM72.3164 632.318C72.3164 632.025 72.2051 631.799 71.9824 631.639C71.7637 631.475 71.3789 631.334 70.8281 631.217C70.2812 631.1 69.8457 630.959 69.5215 630.795C69.2012 630.631 68.9629 630.436 68.8066 630.209C68.6543 629.982 68.5781 629.713 68.5781 629.4C68.5781 628.881 68.7969 628.441 69.2344 628.082C69.6758 627.723 70.2383 627.543 70.9219 627.543C71.6406 627.543 72.2227 627.729 72.668 628.1C73.1172 628.471 73.3418 628.945 73.3418 629.523H72.252C72.252 629.227 72.125 628.971 71.8711 628.756C71.6211 628.541 71.3047 628.434 70.9219 628.434C70.5273 628.434 70.2188 628.52 69.9961 628.691C69.7734 628.863 69.6621 629.088 69.6621 629.365C69.6621 629.627 69.7656 629.824 69.9727 629.957C70.1797 630.09 70.5527 630.217 71.0918 630.338C71.6348 630.459 72.0742 630.604 72.4102 630.771C72.7461 630.939 72.9941 631.143 73.1543 631.381C73.3184 631.615 73.4004 631.902 73.4004 632.242C73.4004 632.809 73.1738 633.264 72.7207 633.607C72.2676 633.947 71.6797 634.117 70.957 634.117C70.4492 634.117 70 634.027 69.6094 633.848C69.2188 633.668 68.9121 633.418 68.6895 633.098C68.4707 632.773 68.3613 632.424 68.3613 632.049H69.4453C69.4648 632.412 69.6094 632.701 69.8789 632.916C70.1523 633.127 70.5117 633.232 70.957 633.232C71.3672 633.232 71.6953 633.15 71.9414 632.986C72.1914 632.818 72.3164 632.596 72.3164 632.318ZM75.9902 634H74.9062V627.66H75.9902V634ZM74.8184 625.979C74.8184 625.803 74.8711 625.654 74.9766 625.533C75.0859 625.412 75.2461 625.352 75.457 625.352C75.668 625.352 75.8281 625.412 75.9375 625.533C76.0469 625.654 76.1016 625.803 76.1016 625.979C76.1016 626.154 76.0469 626.301 75.9375 626.418C75.8281 626.535 75.668 626.594 75.457 626.594C75.2461 626.594 75.0859 626.535 74.9766 626.418C74.8711 626.301 74.8184 626.154 74.8184 625.979ZM77.4727 630.777C77.4727 629.789 77.7012 629.004 78.1582 628.422C78.6152 627.836 79.2207 627.543 79.9746 627.543C80.748 627.543 81.3516 627.816 81.7852 628.363L81.8379 627.66H82.8281V633.848C82.8281 634.668 82.584 635.314 82.0957 635.787C81.6113 636.26 80.959 636.496 80.1387 636.496C79.6816 636.496 79.2344 636.398 78.7969 636.203C78.3594 636.008 78.0254 635.74 77.7949 635.4L78.3574 634.75C78.8223 635.324 79.3906 635.611 80.0625 635.611C80.5898 635.611 81 635.463 81.293 635.166C81.5898 634.869 81.7383 634.451 81.7383 633.912V633.367C81.3047 633.867 80.7129 634.117 79.9629 634.117C79.2207 634.117 78.6191 633.818 78.1582 633.221C77.7012 632.623 77.4727 631.809 77.4727 630.777ZM78.5625 630.9C78.5625 631.615 78.709 632.178 79.002 632.588C79.2949 632.994 79.7051 633.197 80.2324 633.197C80.916 633.197 81.418 632.887 81.7383 632.266V629.371C81.4062 628.766 80.9082 628.463 80.2441 628.463C79.7168 628.463 79.3047 628.668 79.0078 629.078C78.7109 629.488 78.5625 630.096 78.5625 630.9ZM85.4941 627.66L85.5293 628.457C86.0137 627.848 86.6465 627.543 87.4277 627.543C88.7676 627.543 89.4434 628.299 89.4551 629.811V634H88.3711V629.805C88.3672 629.348 88.2617 629.01 88.0547 628.791C87.8516 628.572 87.5332 628.463 87.0996 628.463C86.748 628.463 86.4395 628.557 86.1738 628.744C85.9082 628.932 85.7012 629.178 85.5527 629.482V634H84.4688V627.66H85.4941ZM92.2676 634H91.1836V627.66H92.2676V634ZM91.0957 625.979C91.0957 625.803 91.1484 625.654 91.2539 625.533C91.3633 625.412 91.5234 625.352 91.7344 625.352C91.9453 625.352 92.1055 625.412 92.2148 625.533C92.3242 625.654 92.3789 625.803 92.3789 625.979C92.3789 626.154 92.3242 626.301 92.2148 626.418C92.1055 626.535 91.9453 626.594 91.7344 626.594C91.5234 626.594 91.3633 626.535 91.2539 626.418C91.1484 626.301 91.0957 626.154 91.0957 625.979ZM95.0332 627.66L95.0684 628.457C95.5527 627.848 96.1855 627.543 96.9668 627.543C98.3066 627.543 98.9824 628.299 98.9941 629.811V634H97.9102V629.805C97.9062 629.348 97.8008 629.01 97.5938 628.791C97.3906 628.572 97.0723 628.463 96.6387 628.463C96.2871 628.463 95.9785 628.557 95.7129 628.744C95.4473 628.932 95.2402 629.178 95.0918 629.482V634H94.0078V627.66H95.0332ZM100.371 630.777C100.371 629.789 100.6 629.004 101.057 628.422C101.514 627.836 102.119 627.543 102.873 627.543C103.646 627.543 104.25 627.816 104.684 628.363L104.736 627.66H105.727V633.848C105.727 634.668 105.482 635.314 104.994 635.787C104.51 636.26 103.857 636.496 103.037 636.496C102.58 636.496 102.133 636.398 101.695 636.203C101.258 636.008 100.924 635.74 100.693 635.4L101.256 634.75C101.721 635.324 102.289 635.611 102.961 635.611C103.488 635.611 103.898 635.463 104.191 635.166C104.488 634.869 104.637 634.451 104.637 633.912V633.367C104.203 633.867 103.611 634.117 102.861 634.117C102.119 634.117 101.518 633.818 101.057 633.221C100.6 632.623 100.371 631.809 100.371 630.777ZM101.461 630.9C101.461 631.615 101.607 632.178 101.9 632.588C102.193 632.994 102.604 633.197 103.131 633.197C103.814 633.197 104.316 632.887 104.637 632.266V629.371C104.305 628.766 103.807 628.463 103.143 628.463C102.615 628.463 102.203 628.668 101.906 629.078C101.609 629.488 101.461 630.096 101.461 630.9ZM114.258 633.373C113.836 633.869 113.217 634.117 112.4 634.117C111.725 634.117 111.209 633.922 110.854 633.531C110.502 633.137 110.324 632.555 110.32 631.785V627.66H111.404V631.756C111.404 632.717 111.795 633.197 112.576 633.197C113.404 633.197 113.955 632.889 114.229 632.271V627.66H115.312V634H114.281L114.258 633.373ZM122.32 630.9C122.32 631.865 122.1 632.643 121.658 633.232C121.217 633.822 120.619 634.117 119.865 634.117C119.096 634.117 118.49 633.873 118.049 633.385V636.438H116.965V627.66H117.955L118.008 628.363C118.449 627.816 119.062 627.543 119.848 627.543C120.609 627.543 121.211 627.83 121.652 628.404C122.098 628.979 122.32 629.777 122.32 630.801V630.9ZM121.236 630.777C121.236 630.062 121.084 629.498 120.779 629.084C120.475 628.67 120.057 628.463 119.525 628.463C118.869 628.463 118.377 628.754 118.049 629.336V632.365C118.373 632.943 118.869 633.232 119.537 633.232C120.057 633.232 120.469 633.027 120.773 632.617C121.082 632.203 121.236 631.59 121.236 630.777ZM123.668 635.699L123.053 635.277C123.42 634.766 123.611 634.238 123.627 633.695V632.717H124.688V633.566C124.688 633.961 124.59 634.355 124.395 634.75C124.203 635.145 123.961 635.461 123.668 635.699ZM130.412 634H129.287V625.469H130.412V634ZM139.195 634C139.133 633.875 139.082 633.652 139.043 633.332C138.539 633.855 137.938 634.117 137.238 634.117C136.613 634.117 136.1 633.941 135.697 633.59C135.299 633.234 135.1 632.785 135.1 632.242C135.1 631.582 135.35 631.07 135.85 630.707C136.354 630.34 137.061 630.156 137.971 630.156H139.025V629.658C139.025 629.279 138.912 628.979 138.686 628.756C138.459 628.529 138.125 628.416 137.684 628.416C137.297 628.416 136.973 628.514 136.711 628.709C136.449 628.904 136.318 629.141 136.318 629.418H135.229C135.229 629.102 135.34 628.797 135.562 628.504C135.789 628.207 136.094 627.973 136.477 627.801C136.863 627.629 137.287 627.543 137.748 627.543C138.479 627.543 139.051 627.727 139.465 628.094C139.879 628.457 140.094 628.959 140.109 629.6V632.518C140.109 633.1 140.184 633.562 140.332 633.906V634H139.195ZM137.396 633.174C137.736 633.174 138.059 633.086 138.363 632.91C138.668 632.734 138.889 632.506 139.025 632.225V630.924H138.176C136.848 630.924 136.184 631.312 136.184 632.09C136.184 632.43 136.297 632.695 136.523 632.887C136.75 633.078 137.041 633.174 137.396 633.174ZM141.551 630.777C141.551 629.789 141.779 629.004 142.236 628.422C142.693 627.836 143.299 627.543 144.053 627.543C144.826 627.543 145.43 627.816 145.863 628.363L145.916 627.66H146.906V633.848C146.906 634.668 146.662 635.314 146.174 635.787C145.689 636.26 145.037 636.496 144.217 636.496C143.76 636.496 143.312 636.398 142.875 636.203C142.438 636.008 142.104 635.74 141.873 635.4L142.436 634.75C142.9 635.324 143.469 635.611 144.141 635.611C144.668 635.611 145.078 635.463 145.371 635.166C145.668 634.869 145.816 634.451 145.816 633.912V633.367C145.383 633.867 144.791 634.117 144.041 634.117C143.299 634.117 142.697 633.818 142.236 633.221C141.779 632.623 141.551 631.809 141.551 630.777ZM142.641 630.9C142.641 631.615 142.787 632.178 143.08 632.588C143.373 632.994 143.783 633.197 144.311 633.197C144.994 633.197 145.496 632.887 145.816 632.266V629.371C145.484 628.766 144.986 628.463 144.322 628.463C143.795 628.463 143.383 628.668 143.086 629.078C142.789 629.488 142.641 630.096 142.641 630.9ZM151.611 628.633C151.447 628.605 151.27 628.592 151.078 628.592C150.367 628.592 149.885 628.895 149.631 629.5V634H148.547V627.66H149.602L149.619 628.393C149.975 627.826 150.479 627.543 151.131 627.543C151.342 627.543 151.502 627.57 151.611 627.625V628.633ZM155.127 634.117C154.268 634.117 153.568 633.836 153.029 633.273C152.49 632.707 152.221 631.951 152.221 631.006V630.807C152.221 630.178 152.34 629.617 152.578 629.125C152.82 628.629 153.156 628.242 153.586 627.965C154.02 627.684 154.488 627.543 154.992 627.543C155.816 627.543 156.457 627.814 156.914 628.357C157.371 628.9 157.6 629.678 157.6 630.689V631.141H153.305C153.32 631.766 153.502 632.271 153.85 632.658C154.201 633.041 154.646 633.232 155.186 633.232C155.568 633.232 155.893 633.154 156.158 632.998C156.424 632.842 156.656 632.635 156.855 632.377L157.518 632.893C156.986 633.709 156.189 634.117 155.127 634.117ZM154.992 628.434C154.555 628.434 154.188 628.594 153.891 628.914C153.594 629.23 153.41 629.676 153.34 630.25H156.516V630.168C156.484 629.617 156.336 629.191 156.07 628.891C155.805 628.586 155.445 628.434 154.992 628.434ZM161.49 634.117C160.631 634.117 159.932 633.836 159.393 633.273C158.854 632.707 158.584 631.951 158.584 631.006V630.807C158.584 630.178 158.703 629.617 158.941 629.125C159.184 628.629 159.52 628.242 159.949 627.965C160.383 627.684 160.852 627.543 161.355 627.543C162.18 627.543 162.82 627.814 163.277 628.357C163.734 628.9 163.963 629.678 163.963 630.689V631.141H159.668C159.684 631.766 159.865 632.271 160.213 632.658C160.564 633.041 161.01 633.232 161.549 633.232C161.932 633.232 162.256 633.154 162.521 632.998C162.787 632.842 163.02 632.635 163.219 632.377L163.881 632.893C163.35 633.709 162.553 634.117 161.49 634.117ZM161.355 628.434C160.918 628.434 160.551 628.594 160.254 628.914C159.957 629.23 159.773 629.676 159.703 630.25H162.879V630.168C162.848 629.617 162.699 629.191 162.434 628.891C162.168 628.586 161.809 628.434 161.355 628.434ZM169.67 626.125V627.66H170.854V628.498H169.67V632.43C169.67 632.684 169.723 632.875 169.828 633.004C169.934 633.129 170.113 633.191 170.367 633.191C170.492 633.191 170.664 633.168 170.883 633.121V634C170.598 634.078 170.32 634.117 170.051 634.117C169.566 634.117 169.201 633.971 168.955 633.678C168.709 633.385 168.586 632.969 168.586 632.43V628.498H167.432V627.66H168.586V626.125H169.67ZM171.721 630.771C171.721 630.15 171.842 629.592 172.084 629.096C172.33 628.6 172.67 628.217 173.104 627.947C173.541 627.678 174.039 627.543 174.598 627.543C175.461 627.543 176.158 627.842 176.689 628.439C177.225 629.037 177.492 629.832 177.492 630.824V630.9C177.492 631.518 177.373 632.072 177.135 632.564C176.9 633.053 176.562 633.434 176.121 633.707C175.684 633.98 175.18 634.117 174.609 634.117C173.75 634.117 173.053 633.818 172.518 633.221C171.986 632.623 171.721 631.832 171.721 630.848V630.771ZM172.811 630.9C172.811 631.604 172.973 632.168 173.297 632.594C173.625 633.02 174.062 633.232 174.609 633.232C175.16 633.232 175.598 633.018 175.922 632.588C176.246 632.154 176.408 631.549 176.408 630.771C176.408 630.076 176.242 629.514 175.91 629.084C175.582 628.65 175.145 628.434 174.598 628.434C174.062 628.434 173.631 628.646 173.303 629.072C172.975 629.498 172.811 630.107 172.811 630.9ZM188.273 631.293C188.168 632.195 187.834 632.893 187.271 633.385C186.713 633.873 185.969 634.117 185.039 634.117C184.031 634.117 183.223 633.756 182.613 633.033C182.008 632.311 181.705 631.344 181.705 630.133V629.312C181.705 628.52 181.846 627.822 182.127 627.221C182.412 626.619 182.814 626.158 183.334 625.838C183.854 625.514 184.455 625.352 185.139 625.352C186.045 625.352 186.771 625.605 187.318 626.113C187.865 626.617 188.184 627.316 188.273 628.211H187.143C187.045 627.531 186.832 627.039 186.504 626.734C186.18 626.43 185.725 626.277 185.139 626.277C184.42 626.277 183.855 626.543 183.445 627.074C183.039 627.605 182.836 628.361 182.836 629.342V630.168C182.836 631.094 183.029 631.83 183.416 632.377C183.803 632.924 184.344 633.197 185.039 633.197C185.664 633.197 186.143 633.057 186.475 632.775C186.811 632.49 187.033 631.996 187.143 631.293H188.273ZM192.709 628.633C192.545 628.605 192.367 628.592 192.176 628.592C191.465 628.592 190.982 628.895 190.729 629.5V634H189.645V627.66H190.699L190.717 628.393C191.072 627.826 191.576 627.543 192.229 627.543C192.439 627.543 192.6 627.57 192.709 627.625V628.633ZM193.307 630.771C193.307 630.15 193.428 629.592 193.67 629.096C193.916 628.6 194.256 628.217 194.689 627.947C195.127 627.678 195.625 627.543 196.184 627.543C197.047 627.543 197.744 627.842 198.275 628.439C198.811 629.037 199.078 629.832 199.078 630.824V630.9C199.078 631.518 198.959 632.072 198.721 632.564C198.486 633.053 198.148 633.434 197.707 633.707C197.27 633.98 196.766 634.117 196.195 634.117C195.336 634.117 194.639 633.818 194.104 633.221C193.572 632.623 193.307 631.832 193.307 630.848V630.771ZM194.396 630.9C194.396 631.604 194.559 632.168 194.883 632.594C195.211 633.02 195.648 633.232 196.195 633.232C196.746 633.232 197.184 633.018 197.508 632.588C197.832 632.154 197.994 631.549 197.994 630.771C197.994 630.076 197.828 629.514 197.496 629.084C197.168 628.65 196.73 628.434 196.184 628.434C195.648 628.434 195.217 628.646 194.889 629.072C194.561 629.498 194.396 630.107 194.396 630.9ZM206.051 632.506L207.27 627.66H208.354L206.508 634H205.629L204.088 629.195L202.588 634H201.709L199.869 627.66H200.947L202.195 632.406L203.672 627.66H204.545L206.051 632.506ZM209.197 630.777C209.197 629.805 209.428 629.023 209.889 628.434C210.35 627.84 210.953 627.543 211.699 627.543C212.441 627.543 213.029 627.797 213.463 628.305V625H214.547V634H213.551L213.498 633.32C213.064 633.852 212.461 634.117 211.688 634.117C210.953 634.117 210.354 633.816 209.889 633.215C209.428 632.613 209.197 631.828 209.197 630.859V630.777ZM210.281 630.9C210.281 631.619 210.43 632.182 210.727 632.588C211.023 632.994 211.434 633.197 211.957 633.197C212.645 633.197 213.146 632.889 213.463 632.271V629.359C213.139 628.762 212.641 628.463 211.969 628.463C211.438 628.463 211.023 628.668 210.727 629.078C210.43 629.488 210.281 630.096 210.281 630.9ZM218.865 634.117C218.006 634.117 217.307 633.836 216.768 633.273C216.229 632.707 215.959 631.951 215.959 631.006V630.807C215.959 630.178 216.078 629.617 216.316 629.125C216.559 628.629 216.895 628.242 217.324 627.965C217.758 627.684 218.227 627.543 218.73 627.543C219.555 627.543 220.195 627.814 220.652 628.357C221.109 628.9 221.338 629.678 221.338 630.689V631.141H217.043C217.059 631.766 217.24 632.271 217.588 632.658C217.939 633.041 218.385 633.232 218.924 633.232C219.307 633.232 219.631 633.154 219.896 632.998C220.162 632.842 220.395 632.635 220.594 632.377L221.256 632.893C220.725 633.709 219.928 634.117 218.865 634.117ZM218.73 628.434C218.293 628.434 217.926 628.594 217.629 628.914C217.332 629.23 217.148 629.676 217.078 630.25H220.254V630.168C220.223 629.617 220.074 629.191 219.809 628.891C219.543 628.586 219.184 628.434 218.73 628.434ZM225.662 628.633C225.498 628.605 225.32 628.592 225.129 628.592C224.418 628.592 223.936 628.895 223.682 629.5V634H222.598V627.66H223.652L223.67 628.393C224.025 627.826 224.529 627.543 225.182 627.543C225.393 627.543 225.553 627.57 225.662 627.625V628.633ZM226.834 627.871L226.219 627.449C226.582 626.941 226.77 626.406 226.781 625.844V625H227.854V625.762C227.85 626.152 227.752 626.543 227.561 626.934C227.373 627.32 227.131 627.633 226.834 627.871ZM232.195 632.318C232.195 632.025 232.084 631.799 231.861 631.639C231.643 631.475 231.258 631.334 230.707 631.217C230.16 631.1 229.725 630.959 229.4 630.795C229.08 630.631 228.842 630.436 228.686 630.209C228.533 629.982 228.457 629.713 228.457 629.4C228.457 628.881 228.676 628.441 229.113 628.082C229.555 627.723 230.117 627.543 230.801 627.543C231.52 627.543 232.102 627.729 232.547 628.1C232.996 628.471 233.221 628.945 233.221 629.523H232.131C232.131 629.227 232.004 628.971 231.75 628.756C231.5 628.541 231.184 628.434 230.801 628.434C230.406 628.434 230.098 628.52 229.875 628.691C229.652 628.863 229.541 629.088 229.541 629.365C229.541 629.627 229.645 629.824 229.852 629.957C230.059 630.09 230.432 630.217 230.971 630.338C231.514 630.459 231.953 630.604 232.289 630.771C232.625 630.939 232.873 631.143 233.033 631.381C233.197 631.615 233.279 631.902 233.279 632.242C233.279 632.809 233.053 633.264 232.6 633.607C232.146 633.947 231.559 634.117 230.836 634.117C230.328 634.117 229.879 634.027 229.488 633.848C229.098 633.668 228.791 633.418 228.568 633.098C228.35 632.773 228.24 632.424 228.24 632.049H229.324C229.344 632.412 229.488 632.701 229.758 632.916C230.031 633.127 230.391 633.232 230.836 633.232C231.246 633.232 231.574 633.15 231.82 632.986C232.07 632.818 232.195 632.596 232.195 632.318ZM243.498 626.395H240.756V634H239.637V626.395H236.9V625.469H243.498V626.395ZM246.639 634.117C245.779 634.117 245.08 633.836 244.541 633.273C244.002 632.707 243.732 631.951 243.732 631.006V630.807C243.732 630.178 243.852 629.617 244.09 629.125C244.332 628.629 244.668 628.242 245.098 627.965C245.531 627.684 246 627.543 246.504 627.543C247.328 627.543 247.969 627.814 248.426 628.357C248.883 628.9 249.111 629.678 249.111 630.689V631.141H244.816C244.832 631.766 245.014 632.271 245.361 632.658C245.713 633.041 246.158 633.232 246.697 633.232C247.08 633.232 247.404 633.154 247.67 632.998C247.936 632.842 248.168 632.635 248.367 632.377L249.029 632.893C248.498 633.709 247.701 634.117 246.639 634.117ZM246.504 628.434C246.066 628.434 245.699 628.594 245.402 628.914C245.105 629.23 244.922 629.676 244.852 630.25H248.027V630.168C247.996 629.617 247.848 629.191 247.582 628.891C247.316 628.586 246.957 628.434 246.504 628.434ZM253.436 628.633C253.271 628.605 253.094 628.592 252.902 628.592C252.191 628.592 251.709 628.895 251.455 629.5V634H250.371V627.66H251.426L251.443 628.393C251.799 627.826 252.303 627.543 252.955 627.543C253.166 627.543 253.326 627.57 253.436 627.625V628.633ZM255.457 627.66L255.486 628.363C255.951 627.816 256.578 627.543 257.367 627.543C258.254 627.543 258.857 627.883 259.178 628.562C259.389 628.258 259.662 628.012 259.998 627.824C260.338 627.637 260.738 627.543 261.199 627.543C262.59 627.543 263.297 628.279 263.32 629.752V634H262.236V629.816C262.236 629.363 262.133 629.025 261.926 628.803C261.719 628.576 261.371 628.463 260.883 628.463C260.48 628.463 260.146 628.584 259.881 628.826C259.615 629.064 259.461 629.387 259.418 629.793V634H258.328V629.846C258.328 628.924 257.877 628.463 256.975 628.463C256.264 628.463 255.777 628.766 255.516 629.371V634H254.432V627.66H255.457ZM268.652 632.318C268.652 632.025 268.541 631.799 268.318 631.639C268.1 631.475 267.715 631.334 267.164 631.217C266.617 631.1 266.182 630.959 265.857 630.795C265.537 630.631 265.299 630.436 265.143 630.209C264.99 629.982 264.914 629.713 264.914 629.4C264.914 628.881 265.133 628.441 265.57 628.082C266.012 627.723 266.574 627.543 267.258 627.543C267.977 627.543 268.559 627.729 269.004 628.1C269.453 628.471 269.678 628.945 269.678 629.523H268.588C268.588 629.227 268.461 628.971 268.207 628.756C267.957 628.541 267.641 628.434 267.258 628.434C266.863 628.434 266.555 628.52 266.332 628.691C266.109 628.863 265.998 629.088 265.998 629.365C265.998 629.627 266.102 629.824 266.309 629.957C266.516 630.09 266.889 630.217 267.428 630.338C267.971 630.459 268.41 630.604 268.746 630.771C269.082 630.939 269.33 631.143 269.49 631.381C269.654 631.615 269.736 631.902 269.736 632.242C269.736 632.809 269.51 633.264 269.057 633.607C268.604 633.947 268.016 634.117 267.293 634.117C266.785 634.117 266.336 634.027 265.945 633.848C265.555 633.668 265.248 633.418 265.025 633.098C264.807 632.773 264.697 632.424 264.697 632.049H265.781C265.801 632.412 265.945 632.701 266.215 632.916C266.488 633.127 266.848 633.232 267.293 633.232C267.703 633.232 268.031 633.15 268.277 632.986C268.527 632.818 268.652 632.596 268.652 632.318ZM273.838 630.771C273.838 630.15 273.959 629.592 274.201 629.096C274.447 628.6 274.787 628.217 275.221 627.947C275.658 627.678 276.156 627.543 276.715 627.543C277.578 627.543 278.275 627.842 278.807 628.439C279.342 629.037 279.609 629.832 279.609 630.824V630.9C279.609 631.518 279.49 632.072 279.252 632.564C279.018 633.053 278.68 633.434 278.238 633.707C277.801 633.98 277.297 634.117 276.727 634.117C275.867 634.117 275.17 633.818 274.635 633.221C274.104 632.623 273.838 631.832 273.838 630.848V630.771ZM274.928 630.9C274.928 631.604 275.09 632.168 275.414 632.594C275.742 633.02 276.18 633.232 276.727 633.232C277.277 633.232 277.715 633.018 278.039 632.588C278.363 632.154 278.525 631.549 278.525 630.771C278.525 630.076 278.359 629.514 278.027 629.084C277.699 628.65 277.262 628.434 276.715 628.434C276.18 628.434 275.748 628.646 275.42 629.072C275.092 629.498 274.928 630.107 274.928 630.9ZM281.502 634V628.498H280.5V627.66H281.502V627.01C281.502 626.33 281.684 625.805 282.047 625.434C282.41 625.062 282.924 624.877 283.588 624.877C283.838 624.877 284.086 624.91 284.332 624.977L284.273 625.855C284.09 625.82 283.895 625.803 283.688 625.803C283.336 625.803 283.064 625.906 282.873 626.113C282.682 626.316 282.586 626.609 282.586 626.992V627.66H283.939V628.498H282.586V634H281.502ZM290.801 630.197C289.836 629.92 289.133 629.58 288.691 629.178C288.254 628.771 288.035 628.271 288.035 627.678C288.035 627.006 288.303 626.451 288.838 626.014C289.377 625.572 290.076 625.352 290.936 625.352C291.521 625.352 292.043 625.465 292.5 625.691C292.961 625.918 293.316 626.23 293.566 626.629C293.82 627.027 293.947 627.463 293.947 627.936H292.816C292.816 627.42 292.652 627.016 292.324 626.723C291.996 626.426 291.533 626.277 290.936 626.277C290.381 626.277 289.947 626.4 289.635 626.646C289.326 626.889 289.172 627.227 289.172 627.66C289.172 628.008 289.318 628.303 289.611 628.545C289.908 628.783 290.41 629.002 291.117 629.201C291.828 629.4 292.383 629.621 292.781 629.863C293.184 630.102 293.48 630.381 293.672 630.701C293.867 631.021 293.965 631.398 293.965 631.832C293.965 632.523 293.695 633.078 293.156 633.496C292.617 633.91 291.896 634.117 290.994 634.117C290.408 634.117 289.861 634.006 289.354 633.783C288.846 633.557 288.453 633.248 288.176 632.857C287.902 632.467 287.766 632.023 287.766 631.527H288.896C288.896 632.043 289.086 632.451 289.465 632.752C289.848 633.049 290.357 633.197 290.994 633.197C291.588 633.197 292.043 633.076 292.359 632.834C292.676 632.592 292.834 632.262 292.834 631.844C292.834 631.426 292.688 631.104 292.395 630.877C292.102 630.646 291.57 630.42 290.801 630.197ZM297.873 634.117C297.014 634.117 296.314 633.836 295.775 633.273C295.236 632.707 294.967 631.951 294.967 631.006V630.807C294.967 630.178 295.086 629.617 295.324 629.125C295.566 628.629 295.902 628.242 296.332 627.965C296.766 627.684 297.234 627.543 297.738 627.543C298.562 627.543 299.203 627.814 299.66 628.357C300.117 628.9 300.346 629.678 300.346 630.689V631.141H296.051C296.066 631.766 296.248 632.271 296.596 632.658C296.947 633.041 297.393 633.232 297.932 633.232C298.314 633.232 298.639 633.154 298.904 632.998C299.17 632.842 299.402 632.635 299.602 632.377L300.264 632.893C299.732 633.709 298.936 634.117 297.873 634.117ZM297.738 628.434C297.301 628.434 296.934 628.594 296.637 628.914C296.34 629.23 296.156 629.676 296.086 630.25H299.262V630.168C299.23 629.617 299.082 629.191 298.816 628.891C298.551 628.586 298.191 628.434 297.738 628.434ZM304.67 628.633C304.506 628.605 304.328 628.592 304.137 628.592C303.426 628.592 302.943 628.895 302.689 629.5V634H301.605V627.66H302.66L302.678 628.393C303.033 627.826 303.537 627.543 304.189 627.543C304.4 627.543 304.561 627.57 304.67 627.625V628.633ZM307.869 632.529L309.439 627.66H310.547L308.273 634H307.447L305.15 627.66H306.258L307.869 632.529ZM312.768 634H311.684V627.66H312.768V634ZM311.596 625.979C311.596 625.803 311.648 625.654 311.754 625.533C311.863 625.412 312.023 625.352 312.234 625.352C312.445 625.352 312.605 625.412 312.715 625.533C312.824 625.654 312.879 625.803 312.879 625.979C312.879 626.154 312.824 626.301 312.715 626.418C312.605 626.535 312.445 626.594 312.234 626.594C312.023 626.594 311.863 626.535 311.754 626.418C311.648 626.301 311.596 626.154 311.596 625.979ZM317.051 633.232C317.438 633.232 317.775 633.115 318.064 632.881C318.354 632.646 318.514 632.354 318.545 632.002H319.57C319.551 632.365 319.426 632.711 319.195 633.039C318.965 633.367 318.656 633.629 318.27 633.824C317.887 634.02 317.48 634.117 317.051 634.117C316.188 634.117 315.5 633.83 314.988 633.256C314.48 632.678 314.227 631.889 314.227 630.889V630.707C314.227 630.09 314.34 629.541 314.566 629.061C314.793 628.58 315.117 628.207 315.539 627.941C315.965 627.676 316.467 627.543 317.045 627.543C317.756 627.543 318.346 627.756 318.814 628.182C319.287 628.607 319.539 629.16 319.57 629.84H318.545C318.514 629.43 318.357 629.094 318.076 628.832C317.799 628.566 317.455 628.434 317.045 628.434C316.494 628.434 316.066 628.633 315.762 629.031C315.461 629.426 315.311 629.998 315.311 630.748V630.953C315.311 631.684 315.461 632.246 315.762 632.641C316.062 633.035 316.492 633.232 317.051 633.232ZM323.42 634.117C322.561 634.117 321.861 633.836 321.322 633.273C320.783 632.707 320.514 631.951 320.514 631.006V630.807C320.514 630.178 320.633 629.617 320.871 629.125C321.113 628.629 321.449 628.242 321.879 627.965C322.312 627.684 322.781 627.543 323.285 627.543C324.109 627.543 324.75 627.814 325.207 628.357C325.664 628.9 325.893 629.678 325.893 630.689V631.141H321.598C321.613 631.766 321.795 632.271 322.143 632.658C322.494 633.041 322.939 633.232 323.479 633.232C323.861 633.232 324.186 633.154 324.451 632.998C324.717 632.842 324.949 632.635 325.148 632.377L325.811 632.893C325.279 633.709 324.482 634.117 323.42 634.117ZM323.285 628.434C322.848 628.434 322.48 628.594 322.184 628.914C321.887 629.23 321.703 629.676 321.633 630.25H324.809V630.168C324.777 629.617 324.629 629.191 324.363 628.891C324.098 628.586 323.738 628.434 323.285 628.434ZM145.348 648C145.285 647.875 145.234 647.652 145.195 647.332C144.691 647.855 144.09 648.117 143.391 648.117C142.766 648.117 142.252 647.941 141.85 647.59C141.451 647.234 141.252 646.785 141.252 646.242C141.252 645.582 141.502 645.07 142.002 644.707C142.506 644.34 143.213 644.156 144.123 644.156H145.178V643.658C145.178 643.279 145.064 642.979 144.838 642.756C144.611 642.529 144.277 642.416 143.836 642.416C143.449 642.416 143.125 642.514 142.863 642.709C142.602 642.904 142.471 643.141 142.471 643.418H141.381C141.381 643.102 141.492 642.797 141.715 642.504C141.941 642.207 142.246 641.973 142.629 641.801C143.016 641.629 143.439 641.543 143.9 641.543C144.631 641.543 145.203 641.727 145.617 642.094C146.031 642.457 146.246 642.959 146.262 643.6V646.518C146.262 647.1 146.336 647.562 146.484 647.906V648H145.348ZM143.549 647.174C143.889 647.174 144.211 647.086 144.516 646.91C144.82 646.734 145.041 646.506 145.178 646.225V644.924H144.328C143 644.924 142.336 645.312 142.336 646.09C142.336 646.43 142.449 646.695 142.676 646.887C142.902 647.078 143.193 647.174 143.549 647.174ZM148.986 641.66L149.021 642.457C149.506 641.848 150.139 641.543 150.92 641.543C152.26 641.543 152.936 642.299 152.947 643.811V648H151.863V643.805C151.859 643.348 151.754 643.01 151.547 642.791C151.344 642.572 151.025 642.463 150.592 642.463C150.24 642.463 149.932 642.557 149.666 642.744C149.4 642.932 149.193 643.178 149.045 643.482V648H147.961V641.66H148.986ZM154.318 644.777C154.318 643.805 154.549 643.023 155.01 642.434C155.471 641.84 156.074 641.543 156.82 641.543C157.562 641.543 158.15 641.797 158.584 642.305V639H159.668V648H158.672L158.619 647.32C158.186 647.852 157.582 648.117 156.809 648.117C156.074 648.117 155.475 647.816 155.01 647.215C154.549 646.613 154.318 645.828 154.318 644.859V644.777ZM155.402 644.9C155.402 645.619 155.551 646.182 155.848 646.588C156.145 646.994 156.555 647.197 157.078 647.197C157.766 647.197 158.268 646.889 158.584 646.271V643.359C158.26 642.762 157.762 642.463 157.09 642.463C156.559 642.463 156.145 642.668 155.848 643.078C155.551 643.488 155.402 644.096 155.402 644.9ZM165.627 644.66V648H164.502V639.469H167.648C168.582 639.469 169.312 639.707 169.84 640.184C170.371 640.66 170.637 641.291 170.637 642.076C170.637 642.904 170.377 643.543 169.857 643.992C169.342 644.438 168.602 644.66 167.637 644.66H165.627ZM165.627 643.74H167.648C168.25 643.74 168.711 643.6 169.031 643.318C169.352 643.033 169.512 642.623 169.512 642.088C169.512 641.58 169.352 641.174 169.031 640.869C168.711 640.564 168.271 640.406 167.713 640.395H165.627V643.74ZM174.967 642.633C174.803 642.605 174.625 642.592 174.434 642.592C173.723 642.592 173.24 642.895 172.986 643.5V648H171.902V641.66H172.957L172.975 642.393C173.33 641.826 173.834 641.543 174.486 641.543C174.697 641.543 174.857 641.57 174.967 641.625V642.633ZM177.146 648H176.062V641.66H177.146V648ZM175.975 639.979C175.975 639.803 176.027 639.654 176.133 639.533C176.242 639.412 176.402 639.352 176.613 639.352C176.824 639.352 176.984 639.412 177.094 639.533C177.203 639.654 177.258 639.803 177.258 639.979C177.258 640.154 177.203 640.301 177.094 640.418C176.984 640.535 176.824 640.594 176.613 640.594C176.402 640.594 176.242 640.535 176.133 640.418C176.027 640.301 175.975 640.154 175.975 639.979ZM180.979 646.529L182.549 641.66H183.656L181.383 648H180.557L178.26 641.66H179.367L180.979 646.529ZM188.52 648C188.457 647.875 188.406 647.652 188.367 647.332C187.863 647.855 187.262 648.117 186.562 648.117C185.938 648.117 185.424 647.941 185.021 647.59C184.623 647.234 184.424 646.785 184.424 646.242C184.424 645.582 184.674 645.07 185.174 644.707C185.678 644.34 186.385 644.156 187.295 644.156H188.35V643.658C188.35 643.279 188.236 642.979 188.01 642.756C187.783 642.529 187.449 642.416 187.008 642.416C186.621 642.416 186.297 642.514 186.035 642.709C185.773 642.904 185.643 643.141 185.643 643.418H184.553C184.553 643.102 184.664 642.797 184.887 642.504C185.113 642.207 185.418 641.973 185.801 641.801C186.188 641.629 186.611 641.543 187.072 641.543C187.803 641.543 188.375 641.727 188.789 642.094C189.203 642.457 189.418 642.959 189.434 643.6V646.518C189.434 647.1 189.508 647.562 189.656 647.906V648H188.52ZM186.721 647.174C187.061 647.174 187.383 647.086 187.688 646.91C187.992 646.734 188.213 646.506 188.35 646.225V644.924H187.5C186.172 644.924 185.508 645.312 185.508 646.09C185.508 646.43 185.621 646.695 185.848 646.887C186.074 647.078 186.365 647.174 186.721 647.174ZM193.676 647.232C194.062 647.232 194.4 647.115 194.689 646.881C194.979 646.646 195.139 646.354 195.17 646.002H196.195C196.176 646.365 196.051 646.711 195.82 647.039C195.59 647.367 195.281 647.629 194.895 647.824C194.512 648.02 194.105 648.117 193.676 648.117C192.812 648.117 192.125 647.83 191.613 647.256C191.105 646.678 190.852 645.889 190.852 644.889V644.707C190.852 644.09 190.965 643.541 191.191 643.061C191.418 642.58 191.742 642.207 192.164 641.941C192.59 641.676 193.092 641.543 193.67 641.543C194.381 641.543 194.971 641.756 195.439 642.182C195.912 642.607 196.164 643.16 196.195 643.84H195.17C195.139 643.43 194.982 643.094 194.701 642.832C194.424 642.566 194.08 642.434 193.67 642.434C193.119 642.434 192.691 642.633 192.387 643.031C192.086 643.426 191.936 643.998 191.936 644.748V644.953C191.936 645.684 192.086 646.246 192.387 646.641C192.688 647.035 193.117 647.232 193.676 647.232ZM199.488 646.412L200.965 641.66H202.125L199.576 648.979C199.182 650.033 198.555 650.561 197.695 650.561L197.49 650.543L197.086 650.467V649.588L197.379 649.611C197.746 649.611 198.031 649.537 198.234 649.389C198.441 649.24 198.611 648.969 198.744 648.574L198.984 647.93L196.723 641.66H197.906L199.488 646.412ZM207.369 644.66V648H206.244V639.469H209.391C210.324 639.469 211.055 639.707 211.582 640.184C212.113 640.66 212.379 641.291 212.379 642.076C212.379 642.904 212.119 643.543 211.6 643.992C211.084 644.438 210.344 644.66 209.379 644.66H207.369ZM207.369 643.74H209.391C209.992 643.74 210.453 643.6 210.773 643.318C211.094 643.033 211.254 642.623 211.254 642.088C211.254 641.58 211.094 641.174 210.773 640.869C210.453 640.564 210.014 640.406 209.455 640.395H207.369V643.74ZM213.275 644.771C213.275 644.15 213.396 643.592 213.639 643.096C213.885 642.6 214.225 642.217 214.658 641.947C215.096 641.678 215.594 641.543 216.152 641.543C217.016 641.543 217.713 641.842 218.244 642.439C218.779 643.037 219.047 643.832 219.047 644.824V644.9C219.047 645.518 218.928 646.072 218.689 646.564C218.455 647.053 218.117 647.434 217.676 647.707C217.238 647.98 216.734 648.117 216.164 648.117C215.305 648.117 214.607 647.818 214.072 647.221C213.541 646.623 213.275 645.832 213.275 644.848V644.771ZM214.365 644.9C214.365 645.604 214.527 646.168 214.852 646.594C215.18 647.02 215.617 647.232 216.164 647.232C216.715 647.232 217.152 647.018 217.477 646.588C217.801 646.154 217.963 645.549 217.963 644.771C217.963 644.076 217.797 643.514 217.465 643.084C217.137 642.65 216.699 642.434 216.152 642.434C215.617 642.434 215.186 642.646 214.857 643.072C214.529 643.498 214.365 644.107 214.365 644.9ZM221.584 648H220.5V639H221.584V648ZM224.502 648H223.418V641.66H224.502V648ZM223.33 639.979C223.33 639.803 223.383 639.654 223.488 639.533C223.598 639.412 223.758 639.352 223.969 639.352C224.18 639.352 224.34 639.412 224.449 639.533C224.559 639.654 224.613 639.803 224.613 639.979C224.613 640.154 224.559 640.301 224.449 640.418C224.34 640.535 224.18 640.594 223.969 640.594C223.758 640.594 223.598 640.535 223.488 640.418C223.383 640.301 223.33 640.154 223.33 639.979ZM228.785 647.232C229.172 647.232 229.51 647.115 229.799 646.881C230.088 646.646 230.248 646.354 230.279 646.002H231.305C231.285 646.365 231.16 646.711 230.93 647.039C230.699 647.367 230.391 647.629 230.004 647.824C229.621 648.02 229.215 648.117 228.785 648.117C227.922 648.117 227.234 647.83 226.723 647.256C226.215 646.678 225.961 645.889 225.961 644.889V644.707C225.961 644.09 226.074 643.541 226.301 643.061C226.527 642.58 226.852 642.207 227.273 641.941C227.699 641.676 228.201 641.543 228.779 641.543C229.49 641.543 230.08 641.756 230.549 642.182C231.021 642.607 231.273 643.16 231.305 643.84H230.279C230.248 643.43 230.092 643.094 229.811 642.832C229.533 642.566 229.189 642.434 228.779 642.434C228.229 642.434 227.801 642.633 227.496 643.031C227.195 643.426 227.045 643.998 227.045 644.748V644.953C227.045 645.684 227.195 646.246 227.496 646.641C227.797 647.035 228.227 647.232 228.785 647.232ZM234.598 646.412L236.074 641.66H237.234L234.686 648.979C234.291 650.033 233.664 650.561 232.805 650.561L232.6 650.543L232.195 650.467V649.588L232.488 649.611C232.855 649.611 233.141 649.537 233.344 649.389C233.551 649.24 233.721 648.969 233.854 648.574L234.094 647.93L231.832 641.66H233.016L234.598 646.412Z" fill="#A1A8B1"/>
<g filter="url(#filter0_d)">
<rect x="40" y="518" width="295" height="48" rx="14" fill="#14263C"/>
</g>
<path d="M108.309 544.389C108.309 544.001 108.172 543.705 107.899 543.5C107.625 543.29 107.133 543.072 106.422 542.844C105.711 542.611 105.148 542.383 104.734 542.16C103.603 541.549 103.038 540.727 103.038 539.692C103.038 539.155 103.189 538.676 103.489 538.257C103.795 537.833 104.23 537.503 104.795 537.266C105.365 537.029 106.003 536.91 106.709 536.91C107.42 536.91 108.054 537.04 108.61 537.3C109.166 537.555 109.596 537.917 109.902 538.387C110.211 538.856 110.366 539.389 110.366 539.986H108.316C108.316 539.531 108.172 539.177 107.885 538.927C107.598 538.672 107.195 538.544 106.675 538.544C106.174 538.544 105.784 538.651 105.506 538.865C105.228 539.075 105.089 539.353 105.089 539.699C105.089 540.023 105.251 540.294 105.574 540.513C105.903 540.731 106.383 540.937 107.017 541.128C108.183 541.479 109.033 541.914 109.567 542.434C110.1 542.953 110.366 543.6 110.366 544.375C110.366 545.236 110.041 545.913 109.389 546.405C108.737 546.893 107.86 547.137 106.757 547.137C105.991 547.137 105.294 546.998 104.665 546.72C104.036 546.437 103.556 546.052 103.223 545.564C102.895 545.077 102.731 544.512 102.731 543.869H104.788C104.788 544.967 105.445 545.517 106.757 545.517C107.245 545.517 107.625 545.419 107.899 545.223C108.172 545.022 108.309 544.744 108.309 544.389ZM114.362 547H112.311V537.047H114.362V547ZM124.564 545.742C124.195 546.184 123.673 546.528 122.998 546.774C122.324 547.016 121.577 547.137 120.756 547.137C119.895 547.137 119.138 546.95 118.487 546.576C117.84 546.198 117.338 545.651 116.983 544.936C116.632 544.22 116.452 543.379 116.443 542.413V541.736C116.443 540.743 116.609 539.884 116.942 539.159C117.279 538.43 117.762 537.874 118.391 537.491C119.024 537.104 119.765 536.91 120.613 536.91C121.793 536.91 122.716 537.193 123.381 537.758C124.047 538.318 124.441 539.136 124.564 540.212H122.568C122.477 539.642 122.274 539.225 121.959 538.961C121.649 538.697 121.221 538.564 120.674 538.564C119.977 538.564 119.446 538.826 119.081 539.351C118.717 539.875 118.532 540.654 118.528 541.688V542.324C118.528 543.368 118.726 544.156 119.122 544.689C119.519 545.223 120.1 545.489 120.866 545.489C121.636 545.489 122.185 545.325 122.513 544.997V543.281H120.647V541.771H124.564V545.742ZM134.746 547H132.695L128.703 540.451V547H126.652V537.047H128.703L132.702 543.609V537.047H134.746V547ZM143.044 547H140.993V537.047H143.044V547ZM153.465 547H151.414L147.422 540.451V547H145.371V537.047H147.422L151.421 543.609V537.047H153.465V547ZM167.334 544.129L168.674 537.047H170.718L168.51 547H166.445L164.825 540.342L163.205 547H161.14L158.932 537.047H160.976L162.323 544.115L163.964 537.047H165.7L167.334 544.129ZM174.433 547H172.382V537.047H174.433V547ZM184.047 538.708H180.998V547H178.947V538.708H175.939V537.047H184.047V538.708ZM193.743 547H191.692V542.734H187.693V547H185.643V537.047H187.693V541.08H191.692V537.047H193.743V547ZM205.856 542.933H201.918V547H199.867V537.047H206.348V538.708H201.918V541.278H205.856V542.933ZM212.264 544.949H208.668L207.985 547H205.804L209.509 537.047H211.409L215.135 547H212.954L212.264 544.949ZM209.222 543.288H211.71L210.459 539.562L209.222 543.288ZM224.148 543.685C224.07 544.756 223.674 545.599 222.958 546.214C222.247 546.829 221.309 547.137 220.142 547.137C218.866 547.137 217.861 546.708 217.127 545.852C216.398 544.99 216.034 543.81 216.034 542.311V541.702C216.034 540.745 216.202 539.902 216.539 539.173C216.877 538.444 217.357 537.885 217.982 537.498C218.611 537.106 219.34 536.91 220.169 536.91C221.318 536.91 222.243 537.218 222.945 537.833C223.647 538.448 224.052 539.312 224.162 540.424H222.111C222.061 539.781 221.881 539.316 221.571 539.029C221.265 538.738 220.798 538.592 220.169 538.592C219.486 538.592 218.973 538.838 218.631 539.33C218.294 539.818 218.121 540.576 218.112 541.606V542.358C218.112 543.434 218.274 544.22 218.597 544.717C218.925 545.214 219.44 545.462 220.142 545.462C220.775 545.462 221.247 545.318 221.557 545.031C221.871 544.74 222.052 544.291 222.097 543.685H224.148ZM231.903 542.687H227.965V545.353H232.586V547H225.915V537.047H232.573V538.708H227.965V541.08H231.903V542.687ZM234.21 547V537.047H237.696C238.904 537.047 239.82 537.279 240.444 537.744C241.068 538.204 241.38 538.881 241.38 539.774C241.38 540.262 241.255 540.693 241.004 541.066C240.754 541.436 240.405 541.707 239.959 541.88C240.469 542.007 240.87 542.265 241.162 542.652C241.458 543.04 241.606 543.514 241.606 544.074C241.606 545.031 241.301 545.756 240.69 546.248C240.079 546.74 239.209 546.991 238.079 547H234.21ZM236.26 542.666V545.353H238.017C238.5 545.353 238.876 545.239 239.145 545.011C239.419 544.778 239.555 544.459 239.555 544.054C239.555 543.142 239.084 542.68 238.14 542.666H236.26ZM236.26 541.217H237.778C238.812 541.199 239.33 540.786 239.33 539.979C239.33 539.528 239.197 539.205 238.933 539.009C238.673 538.808 238.261 538.708 237.696 538.708H236.26V541.217ZM251.747 542.249C251.747 543.229 251.574 544.088 251.227 544.826C250.881 545.564 250.384 546.134 249.737 546.535C249.094 546.936 248.356 547.137 247.522 547.137C246.697 547.137 245.961 546.938 245.314 546.542C244.667 546.146 244.166 545.58 243.81 544.847C243.455 544.108 243.275 543.261 243.27 542.304V541.812C243.27 540.832 243.446 539.97 243.797 539.228C244.152 538.48 244.651 537.908 245.294 537.512C245.941 537.111 246.679 536.91 247.508 536.91C248.338 536.91 249.074 537.111 249.716 537.512C250.364 537.908 250.863 538.48 251.214 539.228C251.569 539.97 251.747 540.829 251.747 541.805V542.249ZM249.669 541.798C249.669 540.754 249.482 539.961 249.108 539.419C248.734 538.877 248.201 538.605 247.508 538.605C246.82 538.605 246.289 538.874 245.916 539.412C245.542 539.945 245.353 540.729 245.348 541.764V542.249C245.348 543.265 245.535 544.054 245.909 544.614C246.283 545.175 246.82 545.455 247.522 545.455C248.21 545.455 248.739 545.186 249.108 544.648C249.477 544.106 249.664 543.318 249.669 542.283V541.798ZM261.833 542.249C261.833 543.229 261.66 544.088 261.313 544.826C260.967 545.564 260.47 546.134 259.823 546.535C259.18 546.936 258.442 547.137 257.608 547.137C256.783 547.137 256.047 546.938 255.4 546.542C254.753 546.146 254.252 545.58 253.896 544.847C253.541 544.108 253.361 543.261 253.356 542.304V541.812C253.356 540.832 253.532 539.97 253.883 539.228C254.238 538.48 254.737 537.908 255.38 537.512C256.027 537.111 256.765 536.91 257.594 536.91C258.424 536.91 259.16 537.111 259.802 537.512C260.45 537.908 260.949 538.48 261.3 539.228C261.655 539.97 261.833 540.829 261.833 541.805V542.249ZM259.755 541.798C259.755 540.754 259.568 539.961 259.194 539.419C258.82 538.877 258.287 538.605 257.594 538.605C256.906 538.605 256.375 538.874 256.002 539.412C255.628 539.945 255.439 540.729 255.434 541.764V542.249C255.434 543.265 255.621 544.054 255.995 544.614C256.369 545.175 256.906 545.455 257.608 545.455C258.296 545.455 258.825 545.186 259.194 544.648C259.563 544.106 259.75 543.318 259.755 542.283V541.798ZM266.86 543.008L265.794 544.156V547H263.743V537.047H265.794V541.559L266.696 540.321L269.232 537.047H271.755L268.221 541.47L271.857 547H269.417L266.86 543.008Z" fill="white"/>
<defs>
<filter id="filter0_d" x="22" y="508" width="331" height="84" filterUnits="userSpaceOnUse" color-interpolation-filters="sRGB">
<feFlood flood-opacity="0" result="BackgroundImageFix"/>
<feColorMatrix in="SourceAlpha" type="matrix" values="0 0 0 0 0 0 0 0 0 0 0 0 0 0 0 0 0 0 127 0"/>
<feOffset dy="8"/>
<feGaussianBlur stdDeviation="9"/>
<feColorMatrix type="matrix" values="0 0 0 0 0.0784314 0 0 0 0 0.14902 0 0 0 0 0.235294 0 0 0 0.35 0"/>
<feBlend mode="normal" in2="BackgroundImageFix" result="effect1_dropShadow"/>
<feBlend mode="normal" in="SourceGraphic" in2="effect1_dropShadow" result="shape"/>
</filter>
</defs>
</svg>
