<svg width="238" height="548" viewBox="0 0 238 548" fill="none" xmlns="http://www.w3.org/2000/svg">
<g clip-path="url(#clip0)">
<rect width="238.249" height="547.725" rx="30.2763" fill="#11181A"/>
<mask id="mask0" mask-type="alpha" maskUnits="userSpaceOnUse" x="3" y="25" width="233" height="503">
<rect x="3.02289" y="25.0468" width="232.194" height="502.035" rx="17.8905" fill="#D4E2F4"/>
</mask>
<g mask="url(#mask0)">
<g filter="url(#filter0_d)">
<rect x="-22.4965" y="25.1954" width="282.295" height="502.108" rx="14.3974" fill="white"/>
</g>
<mask id="mask1" mask-type="alpha" maskUnits="userSpaceOnUse" x="-23" y="25" width="283" height="503">
<rect x="-22.4965" y="25.1954" width="282.295" height="502.108" rx="14.3974" fill="white"/>
</mask>
<g mask="url(#mask1)">
<g filter="url(#filter1_d)">
<rect x="50.0834" y="410.622" width="135.502" height="39.1449" rx="19.5724" fill="white"/>
</g>
<path d="M76.5917 431.648C76.55 432.223 76.3368 432.677 75.9521 433.008C75.5698 433.338 75.065 433.504 74.4377 433.504C73.7516 433.504 73.2112 433.274 72.8167 432.813C72.4246 432.35 72.2286 431.715 72.2286 430.909V430.582C72.2286 430.067 72.3193 429.614 72.5006 429.222C72.6819 428.83 72.9405 428.529 73.2762 428.321C73.6143 428.11 74.0064 428.005 74.4524 428.005C75.0699 428.005 75.5674 428.17 75.9447 428.501C76.3221 428.832 76.5402 429.296 76.599 429.894H75.4963C75.4693 429.549 75.3725 429.299 75.2059 429.144C75.0417 428.988 74.7906 428.909 74.4524 428.909C74.0848 428.909 73.8091 429.042 73.6254 429.306C73.444 429.568 73.3509 429.976 73.346 430.53V430.935C73.346 431.513 73.433 431.936 73.607 432.203C73.7834 432.47 74.0603 432.603 74.4377 432.603C74.7783 432.603 75.0319 432.526 75.1986 432.372C75.3676 432.215 75.4644 431.974 75.4889 431.648H76.5917ZM79.5228 431.471H78.6443V433.43H77.5416V428.079H79.5302C80.1624 428.079 80.65 428.219 80.9931 428.501C81.3362 428.783 81.5077 429.181 81.5077 429.696C81.5077 430.061 81.4281 430.366 81.2688 430.611C81.112 430.854 80.873 431.047 80.552 431.192L81.7099 433.379V433.43H80.5263L79.5228 431.471ZM78.6443 430.578H79.5338C79.8108 430.578 80.0252 430.508 80.1771 430.368C80.329 430.226 80.405 430.032 80.405 429.784C80.405 429.532 80.3327 429.333 80.1881 429.189C80.046 429.044 79.8267 428.972 79.5302 428.972H78.6443V430.578ZM86.9714 430.876C86.9714 431.403 86.8783 431.865 86.6921 432.261C86.5058 432.658 86.2387 432.965 85.8908 433.18C85.5453 433.396 85.1483 433.504 84.6998 433.504C84.2563 433.504 83.8606 433.397 83.5126 433.184C83.1646 432.971 82.8951 432.667 82.7039 432.273C82.5128 431.876 82.416 431.42 82.4135 430.905V430.64C82.4135 430.114 82.5079 429.65 82.6966 429.251C82.8877 428.849 83.156 428.542 83.5016 428.328C83.8495 428.113 84.2465 428.005 84.6925 428.005C85.1385 428.005 85.5342 428.113 85.8797 428.328C86.2277 428.542 86.496 428.849 86.6847 429.251C86.8759 429.65 86.9714 430.112 86.9714 430.637V430.876ZM85.854 430.633C85.854 430.072 85.7535 429.646 85.5526 429.354C85.3517 429.062 85.065 428.917 84.6925 428.917C84.3225 428.917 84.037 429.061 83.8361 429.35C83.6351 429.637 83.5334 430.059 83.531 430.615V430.876C83.531 431.422 83.6314 431.846 83.8324 432.148C84.0333 432.449 84.3225 432.6 84.6998 432.6C85.0699 432.6 85.3541 432.455 85.5526 432.166C85.7511 431.874 85.8516 431.45 85.854 430.894V430.633ZM92.1668 431.887L92.8873 428.079H93.9863L92.7991 433.43H91.689L90.8178 429.85L89.9467 433.43H88.8366L87.6494 428.079H88.7484L89.4725 431.879L90.3547 428.079H91.2883L92.1668 431.887ZM94.8113 433.43V428.079H96.458C96.9285 428.079 97.3488 428.185 97.7188 428.398C98.0913 428.609 98.3816 428.91 98.5899 429.303C98.7982 429.692 98.9024 430.136 98.9024 430.633V430.879C98.9024 431.377 98.7994 431.819 98.5936 432.206C98.3902 432.594 98.1023 432.894 97.7298 433.107C97.3573 433.32 96.9371 433.428 96.469 433.43H94.8113ZM95.914 428.972V432.545H96.447C96.8783 432.545 97.2079 432.404 97.4358 432.122C97.6636 431.84 97.78 431.437 97.7849 430.912V430.629C97.7849 430.085 97.6722 429.674 97.4468 429.394C97.2213 429.113 96.8917 428.972 96.458 428.972H95.914ZM106.43 430.876C106.43 431.403 106.337 431.865 106.15 432.261C105.964 432.658 105.697 432.965 105.349 433.18C105.004 433.396 104.607 433.504 104.158 433.504C103.715 433.504 103.319 433.397 102.971 433.184C102.623 432.971 102.353 432.667 102.162 432.273C101.971 431.876 101.874 431.42 101.872 430.905V430.64C101.872 430.114 101.966 429.65 102.155 429.251C102.346 428.849 102.614 428.542 102.96 428.328C103.308 428.113 103.705 428.005 104.151 428.005C104.597 428.005 104.993 428.113 105.338 428.328C105.686 428.542 105.954 428.849 106.143 429.251C106.334 429.65 106.43 430.112 106.43 430.637V430.876ZM105.312 430.633C105.312 430.072 105.212 429.646 105.011 429.354C104.81 429.062 104.523 428.917 104.151 428.917C103.781 428.917 103.495 429.061 103.294 429.35C103.093 429.637 102.992 430.059 102.989 430.615V430.876C102.989 431.422 103.09 431.846 103.291 432.148C103.492 432.449 103.781 432.6 104.158 432.6C104.528 432.6 104.812 432.455 105.011 432.166C105.209 431.874 105.31 431.45 105.312 430.894V430.633ZM111.809 433.43H110.706L108.56 429.909V433.43H107.457V428.079H108.56L110.71 431.607V428.079H111.809V433.43ZM114.101 432.545H116.442V433.43H112.998V428.079H114.101V432.545ZM118.12 430.49L119.233 428.079H120.439L118.682 431.49V433.43H117.561V431.49L115.804 428.079H117.013L118.12 430.49Z" fill="#14263C"/>
<rect x="138.911" y="418.15" width="39.1449" height="24.0892" rx="11.6682" fill="#E8ECFA"/>
<g filter="url(#filter2_d)">
<circle cx="166.013" cy="430.194" r="9.78622" fill="#9887DA"/>
</g>
<mask id="path-9-outside-1" maskUnits="userSpaceOnUse" x="-23.9357" y="475.867" width="285" height="53" fill="black">
<rect fill="white" x="-23.9357" y="475.867" width="285" height="53"/>
<path fill-rule="evenodd" clip-rule="evenodd" d="M138.542 490.417H259.359V527.304H-22.9357V490.417H97.1329C100.618 482.441 108.577 476.867 117.837 476.867C127.098 476.867 135.057 482.441 138.542 490.417Z"/>
</mask>
<path fill-rule="evenodd" clip-rule="evenodd" d="M138.542 490.417H259.359V527.304H-22.9357V490.417H97.1329C100.618 482.441 108.577 476.867 117.837 476.867C127.098 476.867 135.057 482.441 138.542 490.417Z" fill="#FAFAFA"/>
<path d="M138.542 490.417L137.852 490.719L138.049 491.17H138.542V490.417ZM259.359 490.417H260.112V489.665H259.359V490.417ZM259.359 527.304V528.057H260.112V527.304H259.359ZM-22.9357 527.304H-23.6885V528.057H-22.9357V527.304ZM-22.9357 490.417V489.665H-23.6885V490.417H-22.9357ZM97.1329 490.417V491.17H97.6255L97.8228 490.719L97.1329 490.417ZM138.542 491.17H259.359V489.665H138.542V491.17ZM258.606 490.417V527.304H260.112V490.417H258.606ZM259.359 526.551H-22.9357V528.057H259.359V526.551ZM-22.1829 527.304V490.417H-23.6885V527.304H-22.1829ZM-22.9357 491.17H97.1329V489.665H-22.9357V491.17ZM97.8228 490.719C101.192 483.007 108.887 477.62 117.837 477.62V476.114C108.267 476.114 100.043 481.876 96.4431 490.116L97.8228 490.719ZM117.837 477.62C126.788 477.62 134.483 483.007 137.852 490.719L139.232 490.116C135.631 481.876 127.408 476.114 117.837 476.114V477.62Z" fill="#E8ECFA" mask="url(#path-9-outside-1)"/>
<circle cx="117.834" cy="499.451" r="21.078" fill="#9887DA"/>
<path d="M115.469 500.251C114.842 499.627 114.486 498.785 114.486 497.902C114.486 497.018 114.831 496.176 115.469 495.552C116.096 494.929 116.943 494.575 117.831 494.575C118.72 494.575 119.567 494.918 120.194 495.552C120.821 496.176 121.177 497.018 121.177 497.902C121.177 498.505 121.02 499.087 120.717 499.596L123.717 502.58C126.08 499.638 125.902 495.345 123.163 492.621C121.689 491.145 119.755 490.417 117.831 490.417C115.908 490.417 113.974 491.145 112.51 492.611C109.573 495.532 109.573 500.272 112.51 503.193L117.831 508.484L120.79 505.542L115.469 500.251Z" fill="white"/>
<path d="M199.135 507.606C199.83 507.606 200.509 507.4 201.087 507.014C201.665 506.628 202.115 506.079 202.381 505.437C202.647 504.795 202.716 504.089 202.581 503.408C202.445 502.726 202.111 502.1 201.62 501.609C201.128 501.118 200.502 500.783 199.821 500.647C199.139 500.512 198.433 500.581 197.791 500.847C197.149 501.113 196.6 501.563 196.214 502.141C195.828 502.719 195.622 503.398 195.622 504.093C195.622 505.025 195.993 505.918 196.651 506.577C197.31 507.236 198.204 507.606 199.135 507.606Z" fill="#B7BFC8"/>
<path d="M204.405 516.388C204.638 516.388 204.862 516.296 205.026 516.131C205.191 515.966 205.284 515.743 205.284 515.51C205.284 513.88 204.636 512.316 203.483 511.163C202.33 510.01 200.766 509.362 199.136 509.362C197.505 509.362 195.942 510.01 194.789 511.163C193.636 512.316 192.988 513.88 192.988 515.51C192.988 515.743 193.081 515.966 193.245 516.131C193.41 516.296 193.633 516.388 193.866 516.388H204.405Z" fill="#B7BFC8"/>
<path d="M45.5661 509.237C45.5661 509.636 45.4075 510.019 45.1252 510.302C44.8428 510.584 44.4599 510.743 44.0606 510.743H35.0271L32.016 513.754V501.709C32.016 501.31 32.1746 500.927 32.457 500.645C32.7393 500.362 33.1223 500.204 33.5216 500.204H44.0606C44.4599 500.204 44.8428 500.362 45.1252 500.645C45.4075 500.927 45.5661 501.31 45.5661 501.709V509.237Z" fill="#B7BFC8"/>
<path d="M42.5539 512.248C42.5539 512.647 42.3953 513.03 42.1129 513.313C41.8306 513.595 41.4476 513.754 41.0483 513.754H32.0149L29.0037 516.765V504.72C29.0037 504.321 29.1623 503.938 29.4447 503.656C29.727 503.373 30.11 503.215 30.5093 503.215H41.0483C41.4476 503.215 41.8306 503.373 42.1129 503.656C42.3953 503.938 42.5539 504.321 42.5539 504.72V512.248Z" fill="#B7BFC8"/>
<path d="M32.3913 506.979H39.1663M32.3913 510.366H39.1663M42.5539 512.248C42.5539 512.647 42.3953 513.03 42.1129 513.313C41.8306 513.595 41.4476 513.754 41.0483 513.754H32.0149L29.0037 516.765V504.72C29.0037 504.321 29.1623 503.938 29.4447 503.656C29.727 503.373 30.11 503.215 30.5093 503.215H41.0483C41.4476 503.215 41.8306 503.373 42.1129 503.656C42.3953 503.938 42.5539 504.321 42.5539 504.72V512.248Z" stroke="#FAFAFA" stroke-width="1.12918" stroke-linecap="round" stroke-linejoin="round"/>
</g>
</g>
<rect x="104.702" y="12.028" width="29.073" height="4.15329" rx="2.07664" fill="#2E2E2E"/>
<rect x="92.981" y="11.8353" width="4.40382" height="4.40382" rx="2.20191" fill="#2E2E2E"/>
</g>
<defs>
<filter id="filter0_d" x="-22.4965" y="25.1954" width="296.692" height="516.506" filterUnits="userSpaceOnUse" color-interpolation-filters="sRGB">
<feFlood flood-opacity="0" result="BackgroundImageFix"/>
<feColorMatrix in="SourceAlpha" type="matrix" values="0 0 0 0 0 0 0 0 0 0 0 0 0 0 0 0 0 0 127 0"/>
<feOffset dx="7.19869" dy="7.19869"/>
<feGaussianBlur stdDeviation="3.59934"/>
<feColorMatrix type="matrix" values="0 0 0 0 0.0784314 0 0 0 0 0.14902 0 0 0 0 0.235294 0 0 0 0.12 0"/>
<feBlend mode="normal" in2="BackgroundImageFix" result="effect1_dropShadow"/>
<feBlend mode="normal" in="SourceGraphic" in2="effect1_dropShadow" result="shape"/>
</filter>
<filter id="filter1_d" x="41.0499" y="405.352" width="153.568" height="57.2118" filterUnits="userSpaceOnUse" color-interpolation-filters="sRGB">
<feFlood flood-opacity="0" result="BackgroundImageFix"/>
<feColorMatrix in="SourceAlpha" type="matrix" values="0 0 0 0 0 0 0 0 0 0 0 0 0 0 0 0 0 0 127 0"/>
<feOffset dy="3.76393"/>
<feGaussianBlur stdDeviation="4.51672"/>
<feColorMatrix type="matrix" values="0 0 0 0 0.595069 0 0 0 0 0.530295 0 0 0 0 0.854167 0 0 0 0.25 0"/>
<feBlend mode="normal" in2="BackgroundImageFix" result="effect1_dropShadow"/>
<feBlend mode="normal" in="SourceGraphic" in2="effect1_dropShadow" result="shape"/>
</filter>
<filter id="filter2_d" x="154.721" y="419.655" width="22.5836" height="22.5836" filterUnits="userSpaceOnUse" color-interpolation-filters="sRGB">
<feFlood flood-opacity="0" result="BackgroundImageFix"/>
<feColorMatrix in="SourceAlpha" type="matrix" values="0 0 0 0 0 0 0 0 0 0 0 0 0 0 0 0 0 0 127 0"/>
<feOffset dy="0.752786"/>
<feGaussianBlur stdDeviation="0.752786"/>
<feColorMatrix type="matrix" values="0 0 0 0 0.0784314 0 0 0 0 0.14902 0 0 0 0 0.235294 0 0 0 0.4 0"/>
<feBlend mode="normal" in2="BackgroundImageFix" result="effect1_dropShadow"/>
<feBlend mode="normal" in="SourceGraphic" in2="effect1_dropShadow" result="shape"/>
</filter>
<clipPath id="clip0">
<rect width="237.806" height="548" fill="white"/>
</clipPath>
</defs>
</svg>
